<?xml version="1.0" standalone="no"?>
<!DOCTYPE svg PUBLIC "-//W3C//DTD SVG 20010904//EN"
 "http://www.w3.org/TR/2001/REC-SVG-20010904/DTD/svg10.dtd">
<svg version="1.0" xmlns="http://www.w3.org/2000/svg"
 width="700.000000pt" height="700.000000pt" viewBox="0 0 700.000000 700.000000"
 preserveAspectRatio="xMidYMid meet">
<metadata>
Created by potrace 1.14, written by Peter Selinger 2001-2017
</metadata>
<g transform="translate(0.000000,700.000000) scale(0.100000,-0.100000)"
fill="#000000" stroke="none">
<path d="M0 3500 l0 -3500 1697 0 c933 0 1694 2 1691 5 -4 5 -1081 576 -2493
1322 -390 207 -718 383 -727 391 -17 14 -18 112 -18 1782 0 1670 1 1768 17
1782 10 8 98 57 196 109 l178 93 -7 52 c-5 46 -4 53 18 68 30 21 60 146 44
187 -21 59 17 73 150 55 25 -3 34 2 50 25 10 16 34 38 52 49 27 16 34 17 38 5
3 -8 3 -18 0 -24 -9 -14 -47 -243 -42 -249 5 -4 144 69 1246 653 267 142 530
281 585 310 565 299 710 377 714 380 2 3 -759 5 -1692 5 l-1697 0 0 -3500z
m771 3194 c-19 -8 -36 -12 -39 -9 -6 6 37 24 58 24 8 0 0 -6 -19 -15z m442
-16 c3 -10 9 -10 30 1 19 10 45 12 99 7 168 -15 352 -150 384 -282 13 -55 55
-126 85 -142 21 -12 29 -25 29 -44 0 -28 -22 -45 -112 -84 -26 -12 -26 -11
-26 19 0 70 -15 138 -33 151 -10 7 -27 31 -37 53 -10 22 -32 53 -50 68 -18 15
-32 35 -32 45 0 9 -12 29 -27 44 -19 20 -27 37 -26 62 1 19 -1 34 -3 34 -3 0
-15 -12 -28 -27 l-23 -27 -69 28 c-38 16 -85 40 -105 53 -20 13 -59 27 -88 32
-67 11 -76 21 -18 21 27 0 47 -5 50 -12z m-476 -75 c2 -6 -10 -14 -29 -18 -57
-11 -77 -26 -84 -62 -3 -18 -15 -38 -25 -43 -26 -14 -29 -13 -29 14 0 63 150
161 167 109z m33 -173 c0 -5 -9 -10 -21 -10 -11 0 -17 5 -14 10 3 6 13 10 21
10 8 0 14 -4 14 -10z m150 -449 c0 -3 -5 -13 -10 -21 -12 -19 -35 2 -27 24 6
15 37 12 37 -3z"/>
<path d="M3611 6995 c4 -3 211 -114 714 -380 55 -29 432 -229 838 -444 778
-413 833 -441 854 -441 7 0 13 -4 13 -8 0 -4 20 -16 45 -26 25 -11 50 -25 56
-32 6 -7 23 -16 39 -19 16 -3 34 -13 40 -20 7 -8 146 -85 309 -171 163 -87
304 -164 314 -172 16 -14 17 -112 17 -1782 0 -1670 -1 -1768 -18 -1782 -9 -8
-336 -184 -727 -390 -390 -207 -928 -492 -1195 -633 -267 -142 -530 -281 -585
-310 -565 -299 -710 -377 -714 -380 -2 -3 759 -5 1692 -5 l1697 0 0 3500 0
3500 -1697 0 c-933 0 -1694 -2 -1692 -5z"/>
<path d="M3448 6530 c-60 -32 -56 -40 19 -40 l68 -1 -24 -19 c-28 -24 -49 -25
-71 -5 -18 16 -135 20 -364 11 -147 -6 -239 -26 -230 -50 8 -22 -24 -27 -60
-9 -31 14 -42 14 -136 -2 -57 -9 -130 -25 -163 -36 -33 -10 -68 -19 -79 -19
-17 0 -59 -18 -113 -47 -11 -6 -34 -17 -51 -23 -17 -6 -57 -33 -89 -60 -37
-31 -73 -52 -103 -60 -67 -16 -113 -51 -213 -161 l-87 -97 5 -60 6 -61 -96
-46 c-108 -51 -121 -65 -182 -193 l-40 -84 -315 -167 -315 -168 2 -44 c3 -58
60 -216 81 -224 10 -4 47 -9 83 -12 60 -5 73 -2 149 30 72 31 84 34 97 22 16
-17 8 -39 -12 -31 -26 10 -46 -18 -50 -74 -12 -153 -18 -173 -55 -198 -19 -13
-40 -38 -46 -55 -9 -26 -15 -31 -36 -29 -18 2 -38 -7 -63 -29 -33 -29 -36 -35
-30 -70 6 -37 5 -39 -31 -54 -42 -17 -69 -12 -84 16 -8 14 -21 19 -49 19 -39
0 -72 22 -52 34 9 6 5 63 -5 74 -9 12 -44 -14 -55 -40 -11 -28 -11 -32 9 -49
29 -23 28 -43 -2 -62 -22 -15 -25 -15 -30 -1 -3 9 -6 34 -6 57 0 31 -3 38 -10
27 -6 -9 -9 -478 -9 -1236 -1 -1144 1 -1222 17 -1237 15 -13 739 -400 1167
-623 127 -66 142 -77 154 -109 14 -40 32 -42 41 -4 4 16 8 20 14 11 9 -15 36
-16 36 -2 0 6 -11 16 -25 22 -31 14 -31 21 0 52 17 17 25 36 25 61 0 28 4 35
20 35 21 0 27 -19 11 -35 -13 -13 33 -70 48 -61 7 5 8 13 2 24 -7 12 -5 22 6
34 11 12 12 21 4 36 -6 11 -7 22 -4 26 10 10 51 7 59 -5 8 -13 72 -3 93 14 9
7 56 13 115 13 133 2 143 4 201 35 35 19 50 33 51 48 2 26 14 42 14 18 0 -22
6 -21 44 2 17 10 49 24 71 31 22 7 49 19 61 27 12 7 54 20 95 28 41 7 82 17
92 20 9 4 23 2 30 -4 9 -7 32 -8 68 -3 78 11 167 6 229 -12 30 -9 68 -16 85
-16 17 0 40 -7 51 -15 10 -8 30 -15 43 -15 30 0 135 91 187 162 21 28 40 46
42 40 4 -12 -74 -127 -107 -156 -27 -25 -28 -66 -2 -66 10 0 23 -6 28 -13 16
-19 26 -87 13 -87 -5 0 -10 -7 -10 -16 0 -14 8 -16 59 -10 33 4 90 16 128 28
101 31 222 24 253 -14 15 -18 18 -19 63 -3 36 12 52 13 67 5 17 -9 30 -7 66
10 24 12 44 26 44 31 0 14 13 10 39 -12 22 -18 23 -23 13 -56 -8 -27 -8 -40 0
-50 16 -19 22 -16 35 16 14 37 6 80 -20 108 -21 24 -17 56 7 47 8 -3 19 -18
25 -32 6 -15 20 -42 32 -61 18 -31 19 -35 4 -43 -10 -6 -14 -16 -10 -29 4 -11
0 -26 -11 -36 -13 -14 -15 -28 -10 -74 5 -56 5 -59 -26 -82 -30 -24 -54 -25
-71 -3 -4 6 -5 -2 -1 -19 9 -38 12 -41 26 -27 7 7 20 12 30 12 11 0 29 9 41
20 12 11 27 18 34 16 20 -8 16 41 -4 54 -17 11 -17 11 0 6 10 -3 28 -6 39 -6
16 0 19 -5 15 -22 -4 -12 -2 -28 4 -34 8 -9 3 -17 -15 -29 -14 -10 -26 -24
-26 -31 0 -8 -9 -14 -19 -14 -11 0 -22 -4 -26 -9 -9 -15 14 -24 30 -11 9 8 15
8 20 0 9 -15 25 -2 25 20 0 10 8 26 17 36 10 9 18 29 19 43 1 14 3 29 3 34 2
17 21 5 21 -13 0 -29 69 -170 86 -177 15 -5 20 -48 6 -56 -14 -10 -62 6 -62
19 0 19 -16 18 -24 -1 -3 -8 1 -20 9 -27 33 -30 46 -40 49 -37 86 99 104 123
99 135 -3 10 2 14 18 14 15 0 34 13 52 35 15 19 32 35 37 35 5 0 148 74 317
164 169 90 502 266 738 391 237 125 438 234 448 243 15 13 17 35 17 178 0 151
2 169 25 231 14 38 39 91 55 119 64 113 85 236 59 340 -14 53 -51 84 -103 84
-20 0 -36 4 -36 10 0 5 -20 18 -45 29 -64 28 -75 42 -75 95 0 35 4 46 16 46
20 0 73 -58 81 -90 17 -60 22 94 22 675 l1 610 -60 28 c-33 15 -65 25 -71 22
-14 -9 -39 14 -39 37 0 30 -31 70 -67 84 -25 11 -34 22 -39 50 -8 46 -100 146
-114 124 -6 -10 1 -33 22 -72 17 -32 28 -62 24 -66 -4 -4 -12 1 -17 11 -6 9
-22 17 -37 17 -15 0 -32 4 -38 8 -20 12 -54 76 -54 100 0 12 -4 30 -9 40 -4 9
-17 35 -27 57 -21 44 -311 338 -325 329 -5 -2 -27 4 -51 16 -23 11 -47 20 -54
20 -6 0 -17 7 -24 15 -10 12 -9 16 5 21 9 4 21 2 28 -5 8 -8 15 -7 28 5 15 14
20 12 53 -17 57 -50 65 -25 16 49 -23 34 -46 62 -51 62 -5 0 -21 8 -36 17 -14
9 -46 18 -72 20 -41 2 -71 20 -71 43 0 3 34 12 76 19 58 11 74 17 70 28 -4 8
-6 17 -6 19 0 2 -10 4 -22 4 -12 0 -29 7 -38 15 -13 12 -23 13 -44 5 -48 -18
-75 -13 -82 17 -6 21 -2 30 20 45 30 22 34 43 10 52 -15 6 -14 9 6 31 24 26
20 45 -11 45 -12 0 -19 -7 -19 -20 0 -11 -7 -20 -15 -20 -7 0 -18 -8 -24 -17
-14 -26 -41 2 -41 43 0 32 -2 34 -25 28 -15 -4 -25 -2 -25 5 0 6 -7 11 -15 11
-17 0 -20 35 -4 45 6 4 13 -2 16 -14 4 -17 9 -19 24 -10 15 7 26 5 49 -13 22
-15 33 -19 41 -11 8 8 3 18 -17 36 -23 21 -26 31 -21 61 3 20 2 36 -4 36 -5 0
-9 5 -9 10 0 6 18 -1 40 -15 44 -28 49 -29 70 -15 12 8 10 14 -15 40 -16 16
-34 30 -39 30 -11 1 -35 37 -90 133 -24 43 -101 131 -201 230 -40 39 -85 67
-110 67 -12 0 -25 4 -30 9 -6 5 -34 16 -62 26 -33 10 -61 27 -76 46 -21 27
-26 29 -50 20 -15 -6 -42 -8 -59 -5 -36 7 -143 47 -198 74 -19 9 -71 20 -115
24 -50 5 -91 14 -110 26 -42 26 -169 40 -363 40 -161 0 -163 0 -222 30 -69 35
-73 35 -122 10z m-517 -105 c-1 -15 -24 -12 -29 3 -3 9 2 13 12 10 10 -1 17
-7 17 -13z m49 -5 c0 -5 -4 -10 -9 -10 -6 0 -13 5 -16 10 -3 6 1 10 9 10 9 0
16 -4 16 -10z m317 -1 c23 -9 25 -12 12 -19 -22 -13 -89 0 -89 16 0 17 38 18
77 3z m-139 -39 c15 0 22 -6 22 -20 0 -28 -23 -34 -59 -16 -22 12 -37 13 -55
6 -32 -12 -47 7 -20 27 12 9 31 12 54 9 19 -4 45 -6 58 -6z m321 -26 c1 -1 0
-7 -4 -13 -10 -17 -29 -13 -43 9 -12 19 -11 20 15 14 16 -4 30 -8 32 -10z
m721 -5 c0 -6 -4 -7 -10 -4 -5 3 -10 11 -10 16 0 6 5 7 10 4 6 -3 10 -11 10
-16z m-279 -10 c-17 -63 -9 -87 19 -54 14 17 46 20 54 6 4 -5 0 -11 -6 -14
-26 -9 19 -42 65 -46 4 -1 7 -4 7 -8 0 -5 -21 -7 -48 -5 -133 8 -132 8 -157
43 -33 44 -31 62 8 82 37 19 64 17 58 -4z m-1496 -18 c-8 -13 -35 -15 -35 -2
0 5 8 11 18 13 21 5 26 2 17 -11z m1350 9 c-3 -5 -18 -10 -33 -9 l-27 1 25 8
c35 11 42 11 35 0z m372 -5 c22 -9 68 -15 123 -15 85 0 150 -16 165 -40 3 -5
21 -10 38 -10 18 0 41 -6 52 -14 11 -7 42 -16 68 -19 45 -6 48 -5 42 13 -8 24
-6 24 32 5 17 -9 34 -26 37 -39 3 -13 22 -35 41 -50 19 -15 35 -31 35 -35 0
-13 -81 -23 -94 -12 -15 12 -126 51 -147 51 -16 0 -73 39 -114 79 -23 21 -58
41 -74 41 -6 0 -11 -11 -11 -25 0 -36 -23 -40 -56 -10 -22 20 -35 25 -54 20
-69 -18 -200 6 -200 36 0 9 54 38 73 39 4 0 24 -7 44 -15z m-647 -66 c0 -5 -7
-9 -15 -9 -15 0 -20 12 -9 23 8 8 24 -1 24 -14z m312 -5 c4 -3 8 -16 8 -30 0
-13 5 -24 11 -24 6 0 24 -11 39 -24 16 -13 48 -26 74 -29 57 -8 86 -23 86 -43
0 -12 -8 -14 -45 -8 -57 8 -59 -7 -4 -35 31 -16 44 -19 54 -11 10 8 19 8 34 0
16 -8 19 -17 14 -40 -9 -46 7 -57 73 -50 83 9 113 3 121 -28 10 -42 -7 -57
-74 -60 -62 -3 -79 5 -101 45 -11 19 -102 35 -158 27 -30 -4 -44 -2 -53 10
-12 14 -11 20 5 37 16 17 16 22 4 29 -8 6 -29 7 -46 4 -28 -5 -33 -2 -52 30
-12 20 -26 36 -32 36 -5 0 -10 7 -10 16 0 19 32 12 72 -17 31 -21 58 -25 58
-7 0 16 -68 78 -110 100 -19 10 -46 18 -61 18 -15 0 -32 6 -39 14 -6 8 -21 16
-33 18 -12 2 -23 12 -25 22 -4 18 1 19 89 12 51 -4 96 -9 101 -12z m-244 -31
c20 -16 39 -31 42 -34 3 -3 15 -11 26 -17 30 -16 37 -64 17 -106 l-16 -34 -28
20 c-38 29 -43 45 -19 75 27 34 25 43 -8 43 -22 0 -31 7 -42 33 -7 17 -15 35
-18 40 -8 14 10 7 46 -20z m1243 -3 c25 -14 24 -30 -1 -30 -10 0 -24 9 -30 20
-12 23 -1 27 31 10z m-379 -40 c10 0 18 -9 20 -22 3 -23 7 -25 128 -58 41 -11
43 -13 25 -26 -38 -28 -123 -10 -165 35 -14 15 -38 35 -53 44 -31 20 -27 42 7
33 11 -3 29 -6 38 -6z m-2332 -65 c-13 -13 -33 -28 -44 -31 -12 -4 -40 -20
-63 -35 -45 -31 -53 -34 -53 -19 0 5 13 16 30 25 16 8 44 28 62 44 29 25 51
36 82 40 5 0 -1 -10 -14 -24z m2803 -30 c14 -15 42 -28 64 -32 23 -3 50 -17
68 -34 17 -16 39 -36 50 -43 28 -20 12 -31 -25 -18 -17 6 -44 9 -60 5 -19 -3
-30 -1 -30 6 0 6 9 11 20 11 13 0 18 5 14 15 -5 12 -15 14 -41 9 -26 -5 -41
-2 -62 14 -15 11 -49 24 -75 27 -48 8 -63 22 -52 50 4 11 20 15 54 15 39 0 54
-5 75 -25z m-2604 -19 c14 -17 -4 -33 -46 -42 -41 -8 -54 13 -23 38 26 21 53
23 69 4z m2146 -6 c7 -12 -33 -49 -53 -50 -7 0 -25 -6 -40 -14 -23 -12 -30
-12 -45 -1 -10 7 -26 11 -37 8 -12 -3 -22 3 -29 16 -11 19 -9 21 23 21 18 0
49 7 67 15 40 17 105 20 114 5z m-2027 -12 c-5 -15 -48 -24 -48 -10 0 14 12
22 33 22 10 0 17 -5 15 -12z m372 -3 c0 -17 -36 -39 -50 -30 -6 3 -10 12 -10
20 0 12 9 16 53 24 4 0 7 -6 7 -14z m-198 -71 c52 -9 69 -31 31 -39 -15 -4
-38 -11 -51 -16 -17 -6 -37 -5 -68 6 -25 8 -54 15 -64 15 -26 0 -25 15 3 35
22 16 56 16 149 -1z m755 -19 c21 -15 38 -32 38 -38 0 -20 -55 -21 -69 -1 -9
12 -28 17 -67 18 -47 1 -54 4 -57 23 -6 41 92 40 155 -2z m120 4 c6 -6 22 -17
35 -23 37 -19 29 -41 -17 -44 -31 -3 -37 -1 -28 9 9 9 7 16 -9 29 -12 9 -18
22 -14 28 9 15 19 15 33 1z m203 -34 c0 -21 17 -27 39 -13 16 10 23 10 32 1
16 -16 -28 -54 -54 -47 -10 3 -24 0 -32 -6 -8 -7 -15 -10 -15 -6 0 3 -9 -2
-19 -11 -11 -9 -18 -20 -15 -24 9 -15 65 -21 79 -9 23 19 83 -13 91 -48 11
-44 33 -82 49 -82 20 0 19 -13 -5 -43 -11 -14 -20 -30 -20 -36 0 -19 42 -81
56 -81 7 0 22 -17 33 -38 25 -49 57 -67 95 -53 36 14 39 14 33 -3 -3 -8 5 -26
19 -41 27 -29 32 -65 9 -65 -8 0 -25 14 -37 31 -29 39 -73 63 -94 51 -12 -7
-8 -16 27 -50 23 -23 46 -42 51 -42 10 0 47 -27 101 -73 22 -19 39 -26 54 -22
32 8 40 -15 12 -35 -18 -14 -20 -21 -12 -32 6 -7 13 -24 15 -38 4 -35 22 -31
52 13 24 36 25 42 14 80 -6 23 -20 52 -31 64 -20 22 -20 23 -2 43 14 16 15 23
6 34 -7 8 -10 20 -6 26 10 16 62 12 69 -6 10 -27 7 -52 -9 -58 -21 -8 -19 -43
6 -77 22 -31 39 -38 39 -15 0 8 5 18 10 21 21 13 9 -24 -20 -60 -31 -39 -39
-80 -17 -88 9 -3 9 -10 -2 -30 -18 -33 -14 -37 35 -41 34 -2 39 -5 39 -26 0
-16 7 -26 18 -28 24 -5 23 43 -3 75 -11 14 -20 39 -20 55 0 16 -6 31 -15 34
-26 10 -18 41 13 47 15 3 37 8 50 12 15 5 22 3 22 -6 0 -8 14 -27 31 -43 29
-28 31 -32 24 -83 -5 -41 -3 -60 9 -78 9 -13 16 -31 16 -38 0 -8 16 -35 36
-61 24 -32 33 -52 29 -66 -5 -15 -2 -20 10 -20 13 0 16 6 12 21 -12 45 22 68
43 29 8 -15 8 -30 -2 -56 -11 -31 -11 -37 4 -45 9 -5 19 -22 23 -38 5 -22 13
-30 37 -35 26 -5 29 -8 18 -21 -7 -8 -9 -15 -4 -16 56 -4 79 -9 82 -18 2 -6
14 -11 27 -11 12 0 28 -6 34 -14 10 -12 6 -13 -26 -6 -20 5 -40 7 -44 4 -4 -2
-19 0 -32 5 -19 8 -29 6 -38 -5 -6 -8 -10 -16 -8 -18 24 -18 106 -56 123 -56
12 0 31 -7 43 -15 12 -9 46 -16 77 -16 31 -1 56 -6 56 -10 0 -5 -5 -9 -12 -9
-12 0 -5 -11 9 -13 13 -3 40 -61 32 -70 -9 -11 0 -47 12 -47 5 0 6 -6 3 -13
-5 -14 39 -58 68 -70 10 -3 20 -19 23 -34 10 -45 20 -58 51 -62 29 -4 29 -4 4
-10 -14 -4 -31 -19 -38 -35 -13 -25 -12 -29 6 -42 11 -7 23 -25 26 -39 4 -14
13 -25 20 -25 7 0 26 -25 42 -55 33 -66 49 -82 67 -67 6 5 23 12 37 14 16 2
26 11 30 28 4 17 13 25 29 25 33 1 42 23 35 90 -7 65 -17 86 -72 147 -34 37
-35 41 -18 53 25 19 6 51 -37 59 -50 9 -75 31 -70 59 5 26 -21 87 -37 87 -5 0
-17 -9 -27 -19 -28 -30 -39 -29 -126 7 -16 7 -16 9 -1 31 14 19 23 22 50 18
25 -4 32 -2 28 8 -3 7 -12 16 -20 19 -8 3 -14 10 -14 17 0 7 7 8 18 4 9 -5 27
-9 39 -10 12 -1 29 -7 37 -14 19 -16 46 -8 46 13 0 9 -7 12 -19 9 -30 -8 -98
54 -106 96 -4 19 -13 44 -21 55 -8 11 -14 29 -14 40 0 11 -7 27 -16 37 -16 18
-11 59 7 59 16 0 146 -86 166 -110 10 -11 25 -20 35 -20 9 0 20 -4 23 -10 10
-16 38 -12 31 5 -8 22 20 19 60 -6 30 -18 35 -19 40 -5 3 9 12 16 20 16 9 0
14 12 14 34 0 29 23 66 34 55 12 -12 46 -118 46 -142 0 -16 6 -38 12 -50 19
-34 27 -338 10 -356 -13 -13 -11 -51 4 -103 4 -12 0 -18 -11 -18 -24 0 -65
-99 -76 -183 -6 -39 -13 -79 -16 -87 -13 -28 -11 -75 5 -117 8 -24 17 -43 19
-43 18 0 63 34 69 52 7 23 31 47 47 48 5 0 7 -45 6 -100 -1 -55 -6 -100 -11
-100 -4 0 -8 5 -8 10 0 6 -9 10 -20 10 -27 0 -25 -14 5 -30 14 -7 25 -19 25
-27 0 -15 -36 -18 -45 -3 -9 15 -25 2 -18 -15 3 -9 -2 -31 -11 -50 -9 -18 -20
-65 -25 -104 -5 -38 -16 -84 -25 -102 -10 -21 -13 -37 -6 -48 6 -12 4 -27 -6
-45 -8 -16 -14 -41 -14 -57 0 -16 -5 -29 -11 -29 -7 0 -9 -10 -5 -25 4 -15 2
-25 -4 -25 -6 0 -8 -4 -5 -10 3 -5 21 -10 38 -10 l32 0 -29 -15 c-15 -8 -35
-15 -42 -15 -18 0 -18 -11 1 -46 14 -27 14 -29 -5 -32 -25 -4 -26 -27 -2 -37
15 -6 14 -8 -5 -16 -23 -8 -32 -29 -13 -29 14 0 13 -33 -2 -48 -9 -9 -4 -20
25 -47 35 -33 36 -35 12 -31 -13 3 -29 7 -35 11 -5 3 -10 -1 -10 -9 0 -9 3
-16 8 -16 4 0 17 -15 30 -33 26 -40 30 -72 6 -63 -14 5 -15 0 -10 -39 5 -29 4
-45 -3 -45 -13 0 -15 -56 -3 -64 18 -11 20 -162 3 -179 -6 -6 -11 -20 -11 -32
0 -11 -7 -39 -15 -63 -9 -24 -12 -48 -9 -54 4 -6 1 -14 -6 -18 -6 -4 -13 -26
-16 -48 -2 -23 -11 -59 -20 -79 -8 -21 -17 -47 -18 -58 -2 -11 -12 -40 -24
-65 -11 -25 -24 -58 -29 -75 -5 -16 -15 -29 -21 -28 -8 2 -12 -12 -12 -37 0
-23 -5 -46 -10 -53 -6 -7 -27 -34 -48 -62 -20 -27 -43 -54 -50 -58 -7 -5 -19
-23 -26 -40 -12 -26 -15 -28 -15 -10 -1 12 -7 24 -13 27 -9 3 -7 9 6 20 20 16
20 16 1 30 -17 12 -18 18 -8 37 17 34 19 51 6 75 -7 11 -9 38 -6 62 5 35 10
43 32 49 14 3 34 14 44 24 10 11 23 19 29 19 5 0 8 9 5 20 -3 11 -1 22 3 25
16 10 40 -7 40 -29 1 -21 1 -21 15 -2 8 11 15 28 15 38 0 10 4 18 8 18 14 0
32 93 28 148 -2 39 0 52 9 48 14 -5 29 74 27 142 -1 29 3 45 13 48 21 8 19 17
-17 81 -22 38 -32 71 -33 100 0 25 -6 48 -14 52 -7 5 -10 14 -7 20 4 6 12 9
17 6 5 -4 9 -1 9 5 0 6 -8 14 -17 17 -9 4 -40 29 -67 55 l-51 49 25 19 c29 22
23 31 -33 47 -33 9 -36 11 -16 12 27 1 57 26 45 38 -3 3 -18 1 -32 -6 -14 -6
-30 -9 -35 -6 -5 4 -9 2 -9 -3 0 -12 -38 -22 -57 -15 -8 3 -12 12 -9 19 3 7
-7 22 -22 33 -26 20 -26 20 -4 21 12 0 22 -4 22 -10 0 -5 10 -10 23 -10 12 0
29 -4 37 -10 9 -6 23 -3 42 8 31 18 32 37 3 37 -23 0 -32 24 -14 36 18 10 7
21 -14 13 -9 -3 -17 -18 -19 -32 -2 -21 -8 -27 -28 -27 -20 0 -25 5 -24 25 1
26 -9 40 -44 59 -12 6 -22 18 -22 26 0 8 -4 15 -9 15 -5 0 -7 10 -3 22 5 19 2
21 -27 15 -27 -6 -34 -4 -38 13 -6 24 -31 26 -40 4 -3 -9 3 -21 16 -31 17 -11
19 -18 11 -28 -8 -9 -8 -15 0 -20 20 -13 -2 -25 -45 -25 -28 0 -45 5 -48 14
-6 15 -28 12 -79 -9 -13 -5 -20 0 -28 20 -12 32 -66 85 -86 85 -8 0 -14 5 -14
10 0 6 -6 10 -13 10 -8 0 -19 11 -25 25 -12 26 -26 32 -37 15 -10 -16 -25 -1
-25 24 0 13 -9 31 -19 40 -18 17 -19 16 -26 -23 -4 -23 -2 -48 5 -60 9 -18 8
-21 -11 -21 -20 0 -21 4 -16 41 4 32 2 39 -9 35 -20 -8 -18 11 3 22 9 5 17 22
19 36 2 24 0 27 -24 24 -20 -2 -28 2 -30 17 -6 33 -22 42 -28 17 -7 -26 -34
-30 -34 -4 0 24 -19 42 -36 35 -8 -3 -14 1 -14 10 0 19 21 27 49 20 27 -7 26
0 -1 30 -17 18 -28 22 -43 16 -35 -13 -42 -10 -37 16 3 17 11 25 24 25 26 0
18 22 -13 37 -44 22 -66 73 -32 73 14 0 13 3 -5 23 -22 23 -31 53 -12 42 6 -3
15 -3 21 0 13 8 -18 45 -38 45 -7 0 -13 11 -13 24 0 17 -10 30 -34 44 -19 11
-47 39 -62 61 -15 23 -31 41 -35 41 -5 0 -8 13 -7 28 3 36 -6 49 -37 54 -29 6
-31 1 -8 -24 12 -14 14 -21 5 -30 -14 -14 -43 -3 -49 20 -2 10 -18 24 -34 31
-17 7 -28 18 -26 25 5 13 -69 53 -79 43 -4 -3 5 -20 19 -36 14 -17 27 -34 29
-38 1 -4 17 -15 33 -23 24 -12 31 -24 35 -55 3 -22 9 -46 13 -52 11 -18 -11
-16 -30 2 -12 12 -13 19 -3 30 18 21 -2 41 -37 39 -15 -1 -34 -3 -40 -3 -7 -1
-13 -10 -13 -20 0 -23 -59 -33 -103 -18 -33 11 -77 -4 -77 -27 0 -18 6 -22 52
-30 31 -6 37 -4 43 14 5 16 10 18 26 10 25 -14 24 -30 -1 -30 -13 0 -20 -7
-20 -18 0 -29 -11 -34 -37 -17 -17 12 -28 13 -42 5 -24 -12 -41 -13 -61 0 -12
7 -11 13 10 34 l23 26 -25 0 c-14 0 -31 7 -38 15 -14 16 -40 20 -40 6 0 -17
31 -81 39 -81 5 0 11 -12 14 -26 6 -31 -16 -43 -46 -24 -17 10 -22 10 -34 -5
-12 -17 -14 -17 -36 6 -12 13 -50 38 -85 54 -34 17 -62 35 -62 41 0 21 -32 25
-46 7 -12 -16 -15 -16 -23 -3 -29 47 -39 53 -82 54 -24 0 -57 -3 -72 -7 -26
-7 -27 -6 -17 13 6 11 19 20 29 20 10 0 24 6 30 14 10 12 8 17 -10 27 -20 10
-25 9 -37 -10 -8 -11 -23 -21 -33 -21 -10 0 -21 -4 -24 -10 -9 -15 -25 -12
-25 5 0 8 7 15 16 15 8 0 23 7 32 16 15 15 14 18 -3 30 -26 19 -42 17 -48 -5
-4 -17 -57 -37 -57 -21 0 4 14 22 30 40 17 18 28 35 26 37 -3 3 -1 16 4 29 6
15 6 24 0 24 -13 0 -25 -23 -22 -42 2 -11 -6 -20 -22 -24 -16 -4 -26 -13 -26
-24 0 -10 -7 -23 -15 -30 -13 -10 -15 -9 -15 9 0 22 -14 28 -25 11 -3 -5 -14
-10 -23 -10 -12 0 -13 3 -4 12 13 13 17 48 5 48 -4 0 -17 -10 -30 -22 l-23
-21 0 31 c0 29 -3 32 -29 32 -24 0 -29 5 -35 32 -5 26 -2 36 15 49 19 14 20
17 4 22 -28 11 -35 8 -35 -16 0 -25 -35 -65 -47 -53 -4 3 -1 12 5 18 14 14 16
58 3 58 -5 0 -14 -13 -21 -30 -15 -36 -30 -39 -30 -5 0 14 -4 25 -10 25 -5 0
-10 -4 -10 -8 0 -13 -67 -31 -92 -24 -13 3 -27 12 -32 21 -8 13 -12 11 -22
-14 l-12 -30 -10 25 -9 24 -12 -21 c-6 -12 -11 -33 -11 -48 0 -31 -28 -46 -42
-21 -8 14 -12 15 -25 5 -13 -11 -14 -9 -11 11 2 20 -2 26 -19 28 -16 2 -23 -2
-23 -12 0 -9 -5 -16 -11 -16 -6 0 -7 -5 -2 -12 4 -7 8 -24 8 -38 0 -24 -3 -25
-59 -28 -68 -3 -88 -15 -80 -47 4 -15 0 -24 -10 -28 -8 -3 -24 -25 -36 -49
-11 -24 -24 -50 -29 -58 -25 -42 -70 -189 -60 -195 12 -8 48 35 43 50 -3 7 -1
16 4 19 6 3 8 14 5 25 -5 20 23 55 38 46 5 -4 9 3 9 15 0 27 25 76 42 82 18 7
18 -113 0 -135 -17 -20 -8 -37 18 -37 20 0 38 -40 26 -58 -3 -5 1 -15 9 -22
24 -20 18 -27 -25 -34 -26 -4 -40 -11 -40 -21 0 -9 -9 -15 -22 -15 -19 0 -20
2 -6 18 40 47 28 57 -20 17 -36 -30 -62 -32 -62 -6 0 24 -25 47 -35 31 -3 -6
-4 -23 0 -39 3 -17 2 -32 -4 -36 -6 -3 -11 -31 -11 -62 0 -45 3 -54 15 -49 9
3 15 0 15 -8 0 -8 -5 -16 -11 -18 -6 -2 -13 -23 -15 -47 -1 -24 -7 -48 -13
-54 -13 -13 -15 -54 -3 -61 5 -3 9 -44 11 -93 1 -48 6 -92 11 -98 6 -7 6 -24
1 -43 -5 -17 -7 -32 -5 -35 3 -2 7 -20 9 -38 18 -146 18 -142 0 -155 -11 -8
-17 -27 -18 -51 0 -21 -6 -47 -14 -58 -7 -11 -13 -27 -13 -37 0 -10 -4 -18
-10 -18 -5 0 -10 5 -10 11 0 8 -5 7 -15 -1 -11 -9 -12 -17 -6 -23 14 -14 2
-67 -21 -96 -22 -29 -9 -53 17 -31 8 7 18 11 20 8 9 -9 -19 -67 -35 -71 -16
-4 -36 -64 -25 -75 3 -3 5 3 5 12 0 21 19 17 34 -6 7 -12 3 -28 -15 -62 -21
-40 -26 -44 -36 -30 -10 13 -13 8 -25 -32 -15 -55 -32 -59 -36 -9 -4 42 -32
50 -32 9 0 -16 -5 -24 -12 -22 -9 3 -12 27 -9 82 3 71 1 78 -18 83 -25 6 -27
16 -6 33 12 10 17 8 26 -14 7 -14 16 -23 20 -20 14 8 10 44 -5 50 -10 4 -14
26 -14 85 0 46 -4 85 -11 92 -6 6 -11 32 -11 58 0 26 -4 51 -10 54 -5 3 -10
13 -10 21 0 9 -10 24 -22 34 -19 15 -21 22 -12 37 20 33 42 28 50 -11 3 -21
12 -36 20 -36 17 0 13 50 -11 148 -9 36 -16 123 -18 205 -3 122 -7 148 -26
189 -17 36 -22 61 -20 115 1 37 -1 98 -6 134 -6 48 -4 68 5 74 21 13 31 -10
31 -78 1 -58 4 -68 25 -81 13 -9 30 -16 37 -16 17 0 31 -34 46 -116 15 -82 14
-119 -5 -157 -12 -21 -13 -32 -5 -35 6 -2 11 -12 11 -22 0 -9 7 -34 15 -53 8
-20 15 -49 15 -65 0 -32 16 -52 42 -52 11 0 18 7 18 19 0 14 8 21 28 23 23 2
28 8 30 36 2 19 0 41 -4 50 -4 10 -6 28 -5 42 1 14 -3 39 -8 55 l-9 30 -1 -27
c-2 -64 -51 -38 -51 27 0 38 3 44 30 55 35 14 38 26 10 35 -14 4 -21 16 -22
38 -4 75 -6 94 -16 124 -8 25 -7 35 2 40 20 13 26 40 14 73 -8 25 -7 34 7 49
9 11 12 22 7 25 -5 3 -12 24 -16 46 -5 35 -3 44 15 59 16 13 22 30 24 69 2 42
9 59 39 94 32 37 36 47 32 83 -4 31 0 45 16 62 11 12 18 29 15 37 -4 9 0 31 8
50 8 18 17 48 20 66 5 29 48 79 68 80 5 0 6 -13 2 -30 -5 -23 -3 -30 9 -30 17
0 41 73 31 91 -10 15 -45 0 -71 -30 -21 -24 -24 -25 -39 -10 -14 14 -15 20 -4
40 18 35 49 59 76 59 24 0 31 14 13 25 -19 12 -9 34 39 86 43 45 52 51 65 40
9 -8 16 -20 16 -27 0 -20 24 -17 45 6 21 24 63 26 72 5 3 -9 -2 -22 -13 -30
-11 -7 -15 -17 -11 -22 5 -4 22 7 38 25 16 17 33 32 39 32 5 0 10 11 10 24 0
19 6 25 33 29 33 5 50 -8 42 -30 -2 -7 -1 -13 4 -13 8 0 21 30 25 56 0 6 14
22 31 36 l30 26 -18 37 c-11 24 -21 34 -30 29 -26 -16 -73 -49 -93 -67 -19
-16 -25 -17 -43 -5 -18 11 -22 10 -34 -5 -17 -24 -44 -13 -50 20 -5 25 -1 31
47 86 13 13 28 38 35 56 16 38 29 39 61 1 30 -37 40 -38 40 -5 0 15 6 25 14
25 8 0 18 20 25 48 7 26 19 60 27 75 7 16 14 36 14 45 0 33 43 73 80 75 29 2
36 -2 38 -21 6 -42 112 -70 112 -29 0 7 11 29 25 49 23 34 24 38 8 47 -17 9
-17 10 0 28 9 11 17 24 17 30 0 6 10 18 23 27 l22 16 -22 16 c-13 9 -23 25
-23 35 0 10 -4 21 -10 24 -5 3 -10 10 -10 16 0 12 47 12 55 -1 3 -5 15 -10 26
-10 14 0 19 7 19 24 0 17 9 29 28 38 19 10 26 20 24 37 -1 13 9 39 23 57 33
44 23 64 -14 27 -41 -43 -66 -60 -79 -55 -17 5 88 100 126 113 25 8 40 8 62
-1 35 -14 50 -7 50 26 0 16 -6 24 -17 24 -14 0 -15 2 -1 18 9 9 23 32 33 51
25 49 6 60 -38 22 -27 -24 -36 -28 -40 -17 -6 15 15 40 25 30 3 -2 19 9 36 26
33 33 52 38 52 15 0 -21 27 -30 45 -15 21 17 19 30 -4 30 -27 0 -34 15 -15 31
14 11 19 10 33 -8 17 -21 18 -20 28 20 14 50 10 57 -28 57 -16 0 -29 4 -29 8
0 15 45 49 73 56 43 10 22 29 -24 21 -24 -4 -39 -3 -39 4 0 14 41 41 63 41 10
0 28 6 40 14 12 8 52 17 90 21 63 6 67 5 67 -14 0 -14 -6 -21 -18 -21 -10 0
-22 -4 -27 -9 -6 -6 -30 -11 -55 -13 -50 -3 -65 -31 -20 -36 49 -6 55 -12 31
-28 l-22 -16 35 -34 c19 -19 40 -34 46 -34 5 0 10 -7 10 -15 0 -18 31 -20 48
-3 7 7 12 22 12 35 0 31 16 29 32 -4 17 -35 61 -40 66 -7 2 14 -6 24 -30 35
-23 10 -33 21 -33 37 0 16 -10 28 -33 39 -29 14 -45 43 -22 43 12 0 43 67 36
78 -3 6 6 17 20 26 13 10 29 28 34 41 10 26 40 25 40 0z m-1405 -4 c3 -5 -4
-13 -16 -16 -23 -8 -34 -1 -24 14 8 13 32 14 40 2z m549 3 c29 -11 17 -21 -41
-33 -32 -7 -75 -21 -96 -32 -37 -20 -89 -19 -102 1 -10 15 41 38 104 45 49 6
103 17 118 24 1 1 8 -2 17 -5z m1040 -19 c11 -8 28 -15 39 -15 24 0 80 -59 73
-77 -13 -33 -65 -1 -66 42 -1 19 -1 19 -14 3 -18 -24 -36 -23 -36 2 0 11 -7
23 -15 26 -15 6 -21 34 -7 34 4 0 16 -7 26 -15z m-1405 -33 c3 -5 17 -13 31
-17 37 -11 51 -26 45 -46 -5 -16 -1 -19 31 -19 24 0 48 -9 70 -25 18 -14 39
-25 47 -25 8 0 22 -11 31 -26 14 -21 15 -31 6 -60 -9 -26 -9 -38 0 -48 16 -21
0 -26 -56 -18 -46 7 -49 9 -52 40 -3 24 -8 32 -23 32 -11 0 -41 12 -66 27 -41
24 -44 28 -28 39 28 21 14 47 -31 59 -23 5 -49 16 -58 24 -9 8 -26 11 -41 7
-26 -7 -32 -20 -15 -31 15 -9 12 -33 -5 -37 -27 -6 56 -62 100 -68 35 -4 40
-8 43 -34 2 -16 13 -37 24 -46 31 -25 17 -50 -27 -50 -19 0 -35 -4 -35 -10 0
-17 -158 -18 -219 -1 -62 17 -67 22 -37 38 17 9 24 18 19 26 -4 7 -8 23 -8 37
0 20 -7 26 -47 38 -50 14 -64 32 -25 32 12 0 29 5 37 10 24 15 -2 32 -60 38
-36 3 -54 10 -61 23 -5 11 -20 19 -32 19 -12 0 -32 7 -45 15 -15 11 -33 14
-59 9 l-38 -6 23 23 c19 20 31 24 75 22 71 -3 209 -22 283 -39 78 -18 77 -18
71 9 -8 29 1 42 38 54 30 10 83 1 94 -15z m1111 -3 c0 -5 -4 -9 -10 -9 -5 0
-10 7 -10 16 0 8 5 12 10 9 6 -3 10 -10 10 -16z m460 1 c-6 -11 -16 -20 -23
-20 -7 0 -18 9 -25 20 -11 19 -10 20 23 20 33 0 35 -2 25 -20z m-220 -5 c0 -8
-4 -15 -9 -15 -13 0 -22 16 -14 24 11 11 23 6 23 -9z m-590 -15 c0 -5 -4 -10
-9 -10 -6 0 -13 5 -16 10 -3 6 1 10 9 10 9 0 16 -4 16 -10z m1876 2 c6 -4 14
-19 18 -34 3 -16 12 -28 20 -28 21 0 51 -39 39 -51 -12 -12 -53 2 -72 25 -7 9
-19 16 -25 16 -6 0 -12 12 -13 28 -4 47 7 62 33 44z m-756 -12 c0 -5 -7 -10
-15 -10 -8 0 -15 5 -15 10 0 6 7 10 15 10 8 0 15 -4 15 -10z m666 -34 c37 -36
33 -53 -12 -42 -16 4 -30 1 -40 -9 -9 -8 -24 -15 -34 -15 -10 0 -21 -8 -25
-19 -3 -11 -25 -24 -56 -35 -66 -21 -76 -20 -89 4 -12 23 -4 44 33 79 23 21
33 23 104 20 l78 -4 -3 28 c-4 35 2 34 44 -7z m-1148 7 c-4 -22 -22 -20 -26 1
-2 10 3 16 13 16 10 0 15 -7 13 -17z m456 2 c44 -19 39 -35 -12 -35 -45 0 -67
13 -59 34 8 20 25 20 71 1z m-275 -28 c36 -15 32 -22 -32 -51 -20 -9 -35 -20
-33 -24 5 -8 -80 -10 -87 -2 -3 3 -7 16 -9 30 -2 20 1 24 17 22 87 -15 85 -15
85 5 0 36 12 40 59 20z m627 -12 c-3 -8 -2 -15 2 -15 4 0 14 -4 22 -10 12 -7
11 -12 -8 -32 -13 -13 -33 -36 -46 -53 l-24 -30 -43 16 c-24 8 -44 20 -46 25
-1 5 24 22 57 37 41 19 60 34 60 46 0 20 8 31 23 31 5 0 7 -7 3 -15z m-1547
-11 c17 -4 31 -10 31 -15 0 -5 -26 -22 -57 -37 -32 -15 -58 -33 -58 -41 0 -19
-72 -56 -124 -65 -51 -8 -53 5 -7 55 31 33 73 58 123 73 11 4 27 13 33 21 14
17 16 17 59 9z m-674 -24 c3 -6 -5 -10 -19 -10 -14 0 -28 5 -31 10 -3 6 5 10
19 10 14 0 28 -4 31 -10z m1803 2 c15 -10 6 -42 -12 -42 -14 0 -37 35 -29 44
9 8 25 7 41 -2z m-90 -27 c13 -4 22 -14 22 -26 0 -24 -7 -24 -67 2 -41 18 -45
22 -28 29 20 8 29 8 73 -5z m-113 -25 c3 -5 -1 -10 -9 -10 -9 0 -16 5 -16 10
0 6 4 10 9 10 6 0 13 -4 16 -10z m-145 -65 c0 -8 5 -24 12 -35 19 -30 0 -37
-28 -9 -16 16 -23 31 -18 42 8 21 34 22 34 2z m178 -15 c-2 -10 6 -28 17 -40
14 -15 17 -25 9 -37 -15 -24 -27 -19 -46 20 -14 29 -16 41 -6 61 12 28 31 25
26 -4z m511 -32 c-12 -18 -38 -51 -56 -74 -18 -23 -33 -46 -33 -51 0 -6 -7
-16 -15 -23 -13 -11 -15 -8 -15 13 0 14 5 29 10 32 6 3 10 15 10 27 0 26 100
132 113 119 6 -6 1 -22 -14 -43z m201 31 c0 -10 -5 -21 -10 -24 -18 -11 -60
-83 -60 -102 0 -10 -4 -25 -10 -33 -8 -12 -11 -12 -28 3 -10 9 -22 14 -26 10
-4 -4 3 -15 15 -24 18 -13 20 -22 14 -56 -8 -48 -27 -79 -43 -69 -7 4 -12 16
-12 28 0 11 -8 22 -19 25 -32 8 -36 56 -10 108 12 25 31 53 41 62 10 9 18 20
18 25 0 5 9 21 20 36 16 22 28 27 65 28 37 1 45 -2 45 -17z m-1980 1 c0 -5 -8
-10 -17 -10 -15 0 -16 2 -3 10 19 12 20 12 20 0z m2271 0 c29 0 24 -38 -7 -50
-14 -6 -30 -8 -35 -4 -10 6 -11 -11 -3 -44 6 -21 12 -23 48 -20 37 3 41 1 44
-21 3 -20 0 -23 -18 -18 -13 3 -23 0 -27 -9 -3 -8 -11 -14 -18 -14 -15 0 -28
27 -19 41 3 5 -2 9 -10 9 -8 0 -18 -5 -21 -10 -13 -21 -23 2 -14 33 11 40 12
37 -6 37 -19 0 -65 -69 -65 -98 0 -13 -12 -43 -26 -67 -16 -29 -23 -52 -19
-65 8 -24 30 -27 39 -5 5 13 10 14 26 5 16 -9 25 -8 36 1 24 19 27 3 15 -62
-11 -53 -10 -63 3 -78 23 -25 11 -75 -32 -133 -38 -54 -58 -60 -72 -22 -13 34
-13 34 10 34 15 0 20 7 22 28 3 61 -5 88 -33 117 -21 23 -29 41 -30 70 -1 48
-11 85 -22 88 -8 2 -39 -71 -60 -145 -8 -28 -17 -38 -32 -38 -27 -1 -58 -68
-60 -134 -2 -55 -13 -66 -82 -81 -40 -8 -41 -1 -7 71 17 36 31 54 44 54 19 0
30 19 30 52 0 11 8 22 20 25 10 3 29 25 41 49 11 24 30 49 40 55 10 5 19 19
19 30 0 11 7 35 14 54 14 32 14 36 -5 45 -12 7 -19 21 -19 41 0 43 15 65 48
72 16 3 32 14 36 23 9 23 2 28 -24 14 -32 -17 -37 -4 -10 25 25 27 116 51 155
41 13 -3 27 -1 30 5 4 6 14 8 22 5 8 -3 23 -6 34 -6z m-2574 -136 c61 -35 65
-48 12 -39 -24 3 -60 11 -79 17 -19 7 -52 10 -72 9 -42 -3 -46 3 -22 30 22 24
104 15 161 -17z m1593 -40 c0 -6 7 -17 15 -24 22 -18 19 -50 -5 -50 -15 0 -20
7 -20 29 0 17 -4 33 -10 36 -5 3 -10 18 -10 33 1 26 1 26 15 8 8 -11 15 -25
15 -32z m-1827 -12 c35 -36 26 -45 -24 -23 -47 22 -53 27 -44 40 11 19 41 12
68 -17z m2946 5 c7 -10 7 -17 0 -24 -6 -6 -16 -21 -23 -34 -15 -31 -36 -36
-36 -9 0 13 8 24 18 27 14 3 18 11 14 29 -5 26 9 32 27 11z m-759 -37 c0 -5
-4 -10 -10 -10 -5 0 -10 5 -10 10 0 6 5 10 10 10 6 0 10 -4 10 -10z m316 -28
c-19 -19 -40 -5 -30 21 5 13 10 14 26 6 19 -10 19 -12 4 -27z m-2826 18 c0 -5
-4 -10 -10 -10 -5 0 -10 5 -10 10 0 6 5 10 10 10 6 0 10 -4 10 -10z m553 -13
c21 -8 43 -19 50 -27 10 -10 -1 -11 -57 -6 -80 8 -91 13 -75 32 14 17 33 17
82 1z m2743 -12 c6 -15 -44 -91 -53 -81 -3 3 2 21 11 40 9 19 16 39 16 45 0
16 20 13 26 -4z m-800 -32 c-10 -10 -19 5 -10 18 6 11 8 11 12 0 2 -7 1 -15
-2 -18z m-2108 1 c17 -11 22 -25 22 -56 0 -35 -2 -39 -16 -28 -8 8 -21 28 -29
47 -8 18 -19 33 -24 33 -6 0 -11 5 -11 10 0 15 33 12 58 -6z m2792 -25 c0 -5
-7 -9 -15 -9 -15 0 -20 12 -9 23 8 8 24 -1 24 -14z m-780 -19 c0 -5 -4 -10
-10 -10 -5 0 -10 5 -10 10 0 6 5 10 10 10 6 0 10 -4 10 -10z m-2855 -20 c7
-12 -12 -40 -27 -40 -16 0 -21 32 -7 41 18 12 26 11 34 -1z m676 -7 c20 -24
20 -95 0 -91 -9 2 -17 13 -19 26 -2 12 -16 30 -30 39 -15 9 -29 18 -31 19 -1
2 0 7 4 13 10 17 61 13 76 -6z m2259 -5 c0 -16 -3 -19 -11 -11 -6 6 -8 16 -5
22 11 17 16 13 16 -11z m-2835 2 c3 -5 -1 -10 -10 -10 -9 0 -13 5 -10 10 3 6
8 10 10 10 2 0 7 -4 10 -10z m35 -29 c0 -14 -18 -23 -30 -16 -6 4 -8 11 -5 16
8 12 35 12 35 0z m-282 -8 c-26 -55 -43 -83 -51 -83 -13 0 1 52 20 73 16 17
38 24 31 10z m620 -18 c9 -19 9 -31 0 -50 -13 -28 -21 -31 -36 -12 -8 9 -6 16
8 25 16 10 18 17 10 37 -12 33 3 33 18 0z m3168 -8 c-6 -26 -51 -53 -61 -37
-6 10 55 73 63 65 2 -2 2 -15 -2 -28z m-456 13 c0 -5 -4 -10 -10 -10 -5 0 -10
5 -10 10 0 6 5 10 10 10 6 0 10 -4 10 -10z m-2940 -31 c0 -5 -7 -9 -15 -9 -15
0 -20 12 -9 23 8 8 24 -1 24 -14z m1035 -9 c11 -17 -25 -64 -38 -51 -8 8 -7
18 3 36 14 27 25 31 35 15z m2575 -5 c0 -8 -4 -15 -9 -15 -13 0 -22 16 -14 24
11 11 23 6 23 -9z m-3512 -14 c3 -8 -1 -12 -9 -9 -7 2 -15 10 -17 17 -3 8 1
12 9 9 7 -2 15 -10 17 -17z m3060 -4 c4 -18 -25 -67 -39 -67 -12 0 -11 47 2
71 12 23 32 21 37 -4z m-575 -27 c6 -22 -7 -35 -23 -25 -15 9 -12 45 4 45 7 0
16 -9 19 -20z m-2157 0 c19 -8 24 -14 17 -21 -14 -14 -49 -3 -57 16 -6 18 3
19 40 5z m-877 -9 c17 -11 7 -41 -14 -41 -9 0 -15 9 -15 25 0 27 6 30 29 16z
m4095 -18 c8 -21 -17 -48 -38 -40 -23 9 -32 37 -15 48 22 14 46 10 53 -8z
m-3104 -43 c19 -21 46 -59 60 -85 l24 -47 -23 -19 c-31 -25 -47 -24 -67 6 -20
30 -10 49 23 40 17 -4 24 -2 21 6 -5 16 -78 39 -104 33 -12 -3 -26 1 -33 10
-11 12 -8 20 13 43 17 18 22 31 16 37 -17 17 -11 28 13 21 12 -3 38 -24 57
-45z m481 -43 c2 -1 13 -7 24 -13 11 -6 20 -17 20 -25 0 -24 -40 -16 -43 9 -2
12 -13 27 -25 33 -12 7 -23 13 -25 14 -2 2 5 16 15 31 l18 28 6 -37 c3 -21 8
-38 10 -40z m-778 48 c-4 -15 -36 -12 -41 3 -3 9 3 13 19 10 13 -1 23 -7 22
-13z m-716 -47 c-3 -7 -5 -2 -5 12 0 14 2 19 5 13 2 -7 2 -19 0 -25z m4156
-16 c-3 -12 -9 -19 -14 -16 -11 6 -12 48 -2 58 11 11 23 -18 16 -42z m-3373
-13 c0 -12 -20 -11 -59 2 -33 12 -37 19 -20 36 8 8 20 6 45 -9 19 -11 34 -24
34 -29z m3600 -79 c0 -15 53 -80 66 -80 15 0 79 -69 71 -77 -4 -4 -24 10 -45
30 -20 19 -49 40 -64 46 -17 6 -33 24 -42 46 -19 44 -54 48 -85 9 -17 -22 -22
-24 -27 -10 -7 19 -1 55 18 108 l13 37 47 -48 c27 -27 48 -54 48 -61z m-676
74 c9 -8 16 -21 16 -28 0 -8 7 -19 15 -26 12 -10 12 -16 4 -26 -6 -8 -9 -21
-5 -30 3 -8 1 -24 -5 -35 -8 -16 -13 -18 -25 -8 -19 16 -18 29 7 55 l21 23
-33 8 c-24 7 -35 16 -37 32 -7 47 13 64 42 35z m-2336 -56 c-2 -13 -7 -23 -13
-23 -5 0 -11 10 -13 23 -2 15 2 22 13 22 11 0 15 -7 13 -22z m-489 3 c11 -7
10 -11 -4 -19 -23 -12 -55 -4 -55 14 0 16 37 19 59 5z m65 -27 c9 -36 -1 -43
-14 -10 -12 33 -12 36 -1 36 5 0 12 -12 15 -26z m606 -2 c0 -13 -12 -22 -22
-16 -10 6 -1 24 13 24 5 0 9 -4 9 -8z m2591 -15 c-1 -4 -1 -14 -1 -22 0 -8 -7
-15 -15 -15 -15 0 -21 31 -8 44 8 8 25 3 24 -7z m-2851 -22 c0 -8 -4 -15 -9
-15 -5 0 -11 7 -15 15 -3 9 0 15 9 15 8 0 15 -7 15 -15z m-1077 -46 c-8 -29
-13 -23 -13 14 0 22 3 28 9 18 5 -7 6 -22 4 -32z m-213 -43 c0 -16 -18 -31
-27 -22 -8 8 5 36 17 36 5 0 10 -6 10 -14z m3760 -26 c27 -25 30 -33 20 -45
-17 -20 -24 -19 -56 8 -20 18 -25 29 -20 45 10 29 18 28 56 -8z m-2530 -54 c0
-8 -7 -16 -15 -20 -10 -4 -15 1 -15 14 0 11 7 20 15 20 8 0 15 -6 15 -14z
m-1240 -25 c0 -6 -4 -13 -10 -16 -5 -3 -10 1 -10 9 0 9 5 16 10 16 6 0 10 -4
10 -9z m3675 -11 c3 -5 -1 -10 -10 -10 -9 0 -13 5 -10 10 3 6 8 10 10 10 2 0
7 -4 10 -10z m135 -109 c0 -11 -26 -22 -34 -14 -12 12 -5 23 14 23 11 0 20 -4
20 -9z m-3270 -90 c0 -5 -7 -12 -16 -15 -24 -9 -28 -7 -14 9 14 17 30 20 30 6z
m622 -23 c-12 -15 -100 -43 -109 -35 -16 16 9 37 44 37 21 0 45 4 53 10 19 12
26 4 12 -12z m98 12 c0 -5 -4 -10 -9 -10 -6 0 -13 5 -16 10 -3 6 1 10 9 10 9
0 16 -4 16 -10z m-830 -24 c0 -16 -35 -48 -43 -40 -4 4 -13 1 -22 -6 -9 -7
-18 -10 -22 -7 -8 9 68 78 79 71 4 -3 8 -11 8 -18z m375 14 c3 -6 17 -7 31 -4
34 9 31 -15 -6 -51 -29 -28 -30 -28 -30 -7 0 13 -6 22 -15 22 -16 0 -19 9 -9
34 7 18 20 21 29 6z m-267 -62 c-7 -19 -38 -22 -38 -4 0 10 9 16 21 16 12 0
19 -5 17 -12z m3367 -46 c-8 -8 -25 10 -19 20 4 6 9 5 15 -3 4 -7 6 -15 4 -17z
m-32 -6 c9 -7 17 -18 17 -24 0 -13 -69 18 -70 31 0 12 34 7 53 -7z m-3671 -51
c6 -27 -20 -95 -35 -95 -5 0 -7 14 -3 30 3 17 9 44 12 60 8 37 20 39 26 5z
m68 -10 c0 -24 -24 -44 -37 -31 -9 8 14 56 27 56 5 0 10 -11 10 -25z m308 7
c3 -9 -3 -13 -19 -10 -12 1 -24 9 -27 16 -3 9 3 13 19 10 12 -1 24 -9 27 -16z
m-238 -17 c0 -17 -36 -39 -50 -30 -16 10 8 45 30 45 11 0 20 -7 20 -15z m183
-9 c5 -14 -10 -36 -25 -36 -4 0 -8 11 -8 25 0 27 24 35 33 11z m3437 -16 c0
-5 -2 -10 -4 -10 -3 0 -8 5 -11 10 -3 6 -1 10 4 10 6 0 11 -4 11 -10z m41 -50
c16 -9 28 -40 14 -40 -19 0 -52 25 -48 36 6 17 9 17 34 4z m-3751 -30 c21 -21
19 -40 -2 -40 -6 0 -20 -7 -30 -17 -17 -15 -18 -15 -12 18 12 67 14 69 44 39z
m4254 -92 c20 -28 20 -55 1 -74 -8 -9 -15 -29 -15 -46 0 -23 -4 -29 -16 -24
-9 3 -22 6 -29 6 -8 0 -21 7 -30 16 -14 15 -13 20 10 61 14 25 25 54 25 64 0
27 35 24 54 -3z m-374 -45 c0 -13 -3 -13 -15 -3 -8 7 -15 16 -15 21 0 5 7 6
15 3 8 -4 15 -13 15 -21z m490 -127 c7 -15 10 -36 6 -53 -8 -32 -72 -97 -86
-88 -16 10 -11 34 10 55 11 11 22 32 26 47 16 73 22 79 44 39z m-3540 -38
c-19 -42 -40 -62 -40 -37 0 15 42 79 52 79 4 0 -2 -19 -12 -42z m-398 -39 c-3
-49 -9 -59 -27 -52 -13 4 -15 14 -10 42 8 44 14 53 28 48 7 -2 11 -19 9 -38z
m262 4 c-9 -55 -24 -65 -24 -17 0 41 6 54 22 54 5 0 6 -17 2 -37z m766 -33 c0
-5 -9 -14 -20 -20 -16 -8 -20 -8 -20 4 0 8 8 17 18 19 9 3 18 5 20 6 1 0 2 -3
2 -9z m999 -19 c9 -6 10 -11 2 -15 -13 -8 -31 1 -31 15 0 11 11 11 29 0z
m-814 -31 c3 -5 -3 -10 -14 -10 -12 0 -21 5 -21 10 0 6 6 10 14 10 8 0 18 -4
21 -10z m725 -4 c0 -18 -21 -36 -42 -36 -12 0 -18 8 -18 23 0 20 5 24 30 25
18 0 30 -4 30 -12z m-794 -32 c-11 -7 -22 -11 -25 -8 -3 3 3 12 13 20 11 7 22
11 25 8 3 -3 -3 -12 -13 -20z m-789 1 c8 -22 -6 -33 -17 -15 -13 20 -12 30 0
30 6 0 13 -7 17 -15z m1040 -54 c12 -6 30 -11 40 -11 10 0 35 -12 56 -26 24
-16 52 -25 78 -26 43 0 69 -18 69 -48 0 -29 -37 -32 -60 -3 -27 34 -54 24 -48
-18 3 -16 1 -32 -4 -35 -13 -8 -106 75 -112 101 -3 13 -16 25 -31 29 -14 4
-25 12 -25 18 0 6 -7 19 -16 29 -9 10 -13 23 -9 30 6 8 12 6 24 -8 9 -12 26
-26 38 -32z m-1073 14 c7 -29 -18 -85 -38 -85 -7 0 -19 6 -25 14 -13 16 -4 44
27 79 21 23 29 22 36 -8z m1786 15 c0 -5 -4 -10 -9 -10 -6 0 -13 5 -16 10 -3
6 1 10 9 10 9 0 16 -4 16 -10z m-791 -15 c1 -2 0 -8 -3 -14 -5 -7 -15 -7 -34
0 -14 6 -40 9 -57 9 -45 -3 -52 -1 -35 10 13 9 118 5 129 -5z m579 -32 c2 -9
-7 -13 -27 -13 -30 0 -39 9 -24 24 11 10 46 3 51 -11z m2138 -7 c23 -24 32
-59 23 -90 -10 -33 -105 -136 -126 -136 -23 0 -14 35 16 64 34 33 47 62 56
129 7 51 9 54 31 33z m-2726 -21 c0 -8 -4 -15 -10 -15 -5 0 -10 7 -10 15 0 8
5 15 10 15 6 0 10 -7 10 -15z m390 5 c0 -5 -7 -10 -15 -10 -8 0 -15 5 -15 10
0 6 7 10 15 10 8 0 15 -4 15 -10z m-445 -10 c3 -5 -1 -10 -9 -10 -8 0 -18 5
-21 10 -3 6 1 10 9 10 8 0 18 -4 21 -10z m545 0 c0 -5 -9 -10 -20 -10 -11 0
-20 5 -20 10 0 6 9 10 20 10 11 0 20 -4 20 -10z m-431 -29 c7 -5 10 -14 7 -20
-11 -18 -33 -13 -39 9 -5 21 8 26 32 11z m-227 -26 c0 -5 -5 -11 -11 -13 -6
-2 -11 4 -11 13 0 9 5 15 11 13 6 -2 11 -8 11 -13z m578 -5 c0 -5 -4 -10 -9
-10 -6 0 -13 5 -16 10 -3 6 1 10 9 10 9 0 16 -4 16 -10z m-1890 -9 c0 -12 -20
-25 -27 -18 -7 7 6 27 18 27 5 0 9 -4 9 -9z m2410 -1 c0 -5 -4 -10 -10 -10 -5
0 -10 5 -10 10 0 6 5 10 10 10 6 0 10 -4 10 -10z m-1125 -11 c11 -16 -4 -59
-20 -59 -8 0 -15 -7 -15 -15 0 -8 9 -15 20 -15 11 0 20 -7 20 -15 0 -8 -9 -15
-20 -15 -17 0 -18 -3 -8 -24 10 -23 6 -30 -37 -78 -54 -60 -85 -106 -85 -127
0 -19 -50 -71 -68 -71 -24 0 -74 -58 -67 -79 4 -14 -1 -20 -20 -25 -14 -4 -25
-13 -25 -21 0 -10 -10 -15 -29 -15 -16 0 -36 -7 -45 -15 -21 -22 -27 -19 -20
11 6 24 4 26 -23 23 -17 -2 -37 2 -46 9 -13 11 -17 10 -24 -3 -11 -18 -43 -10
-43 11 0 8 -10 14 -25 14 -30 0 -33 15 -5 30 11 6 18 16 14 21 -3 6 2 19 12
30 21 23 7 25 -48 5 -38 -14 -58 -6 -58 22 0 10 10 12 45 6 31 -4 45 -3 45 5
0 7 16 19 36 27 22 9 34 20 31 28 -6 14 10 36 26 36 5 0 7 -6 4 -14 -10 -25
20 -25 44 0 17 18 25 21 36 13 10 -9 20 -7 39 6 14 9 35 15 45 12 12 -3 27 3
38 14 13 14 26 18 44 14 14 -4 28 -2 32 4 3 6 11 9 16 5 14 -8 39 15 39 37 0
11 4 19 9 19 5 0 12 12 16 28 13 53 48 122 61 122 8 0 14 8 14 18 0 31 31 45
45 21z m715 1 c0 -5 -7 -10 -16 -10 -8 0 -12 5 -9 10 3 6 10 10 16 10 5 0 9
-4 9 -10z m-432 -29 c3 -8 -1 -12 -9 -9 -7 2 -15 10 -17 17 -3 8 1 12 9 9 7
-2 15 -10 17 -17z m194 -43 c-12 -12 -35 -1 -27 12 3 5 13 6 21 3 10 -4 12 -9
6 -15z m132 13 c3 -4 3 -11 0 -14 -8 -7 -44 4 -44 14 0 12 37 12 44 0z m-279
-21 c3 -5 2 -10 -4 -10 -5 0 -13 5 -16 10 -3 6 -2 10 4 10 5 0 13 -4 16 -10z
m-1575 -28 c0 -16 -6 -36 -13 -46 -12 -17 -14 -16 -25 8 -6 14 -17 26 -24 26
-17 1 30 40 48 40 9 0 14 -11 14 -28z m386 2 c5 -19 2 -29 -10 -36 -9 -5 -16
-16 -16 -23 0 -19 -14 -19 -30 0 -10 12 -9 15 4 15 21 0 33 29 16 40 -7 4 -9
13 -6 19 13 20 35 12 42 -15z m1292 -7 c4 -31 -9 -34 -38 -10 -28 25 -25 42 8
40 21 -2 28 -8 30 -30z m742 9 c0 -3 -4 -8 -10 -11 -5 -3 -10 -1 -10 4 0 6 5
11 10 11 6 0 10 -2 10 -4z m-2152 -34 c2 -7 -5 -12 -17 -12 -14 0 -19 5 -14
15 6 17 25 15 31 -3z m1323 -4 c6 -13 24 -33 40 -46 26 -21 40 -62 22 -62 -11
0 -53 52 -53 65 0 7 -11 20 -25 29 -28 18 -33 36 -10 36 8 0 20 -10 26 -22z
m234 -16 c0 -18 -20 -15 -23 4 -3 10 1 15 10 12 7 -3 13 -10 13 -16z m-1315
-44 c0 -4 -9 -8 -20 -8 -11 0 -20 5 -20 11 0 6 -8 8 -19 4 -29 -9 -35 11 -9
29 20 15 24 14 45 -6 13 -12 23 -25 23 -30z m997 35 c4 -12 -35 -29 -44 -19
-8 8 18 37 30 33 6 -2 12 -8 14 -14z m-417 -32 c0 -12 -20 -25 -27 -18 -7 7 6
27 18 27 5 0 9 -4 9 -9z m-534 -15 c3 -8 12 -12 20 -9 8 3 14 0 14 -6 0 -6 -6
-11 -12 -11 -7 0 -4 -7 7 -16 12 -9 30 -13 45 -9 l25 7 -29 -31 c-37 -39 -61
-41 -52 -6 4 14 3 25 -1 25 -19 1 -55 41 -49 55 7 19 25 19 32 1z m1002 -36
c12 -12 22 -25 22 -31 0 -12 -47 21 -54 39 -8 18 7 15 32 -8z m-1030 -65 c-11
-13 -25 -22 -31 -18 -5 3 1 14 14 24 34 26 43 23 17 -6z m952 -15 c0 -5 -2
-10 -4 -10 -3 0 -8 5 -11 10 -3 6 -1 10 4 10 6 0 11 -4 11 -10z m2850 -9 c15
-28 12 -68 -5 -75 -27 -10 -60 65 -38 87 12 13 32 7 43 -12z m-3680 0 c0 -5 3
-16 6 -25 8 -21 -11 -20 -36 1 -27 23 -25 33 5 33 14 0 25 -4 25 -9z m-585
-51 c-3 -5 -10 -10 -16 -10 -5 0 -9 5 -9 10 0 6 7 10 16 10 8 0 12 -4 9 -10z
m225 -20 c0 -5 -2 -10 -4 -10 -3 0 -8 5 -11 10 -3 6 -1 10 4 10 6 0 11 -4 11
-10z m290 -25 c0 -15 -46 -32 -57 -21 -10 9 18 36 38 36 11 0 19 -7 19 -15z
m1225 5 c3 -5 1 -10 -4 -10 -6 0 -11 5 -11 10 0 6 2 10 4 10 3 0 8 -4 11 -10z
m899 -28 c9 -15 -12 -35 -29 -28 -14 5 -15 9 -5 21 14 17 26 19 34 7z m116
-83 c0 -4 -12 -10 -27 -14 -36 -9 -37 -9 -41 4 -2 6 3 11 12 11 9 0 16 7 16
15 0 9 -9 15 -22 15 -23 1 -23 1 -3 16 18 14 22 13 42 -13 13 -15 23 -31 23
-34z m-1790 47 c0 -3 -4 -8 -10 -11 -5 -3 -10 -1 -10 4 0 6 5 11 10 11 6 0 10
-2 10 -4z m2675 -16 c3 -5 1 -10 -4 -10 -6 0 -11 5 -11 10 0 6 2 10 4 10 3 0
8 -4 11 -10z m-565 -36 c11 -12 10 -18 -3 -32 -21 -20 -39 -6 -31 26 7 26 17
28 34 6z m-3050 -4 c0 -5 -4 -10 -10 -10 -5 0 -10 5 -10 10 0 6 5 10 10 10 6
0 10 -4 10 -10z m3650 -15 c0 -8 5 -15 10 -15 6 0 10 -5 10 -11 0 -14 -18 -2
-30 22 -7 13 -7 19 0 19 5 0 10 -7 10 -15z m-3640 -40 c0 -28 -18 -40 -47 -32
-16 4 -15 6 5 12 13 4 21 13 18 20 -5 14 2 25 16 25 4 0 8 -11 8 -25z m2340
-37 c6 -24 26 -74 44 -113 38 -80 83 -231 72 -242 -17 -17 -42 20 -67 101 -15
48 -33 94 -40 102 -9 11 -9 18 -2 25 8 8 1 30 -23 75 -39 74 -42 94 -14 94 14
0 22 -11 30 -42z m465 20 c44 -29 45 -42 3 -33 -44 10 -48 13 -48 36 0 24 3
24 45 -3z m-2110 2 c-3 -5 -11 -10 -16 -10 -6 0 -7 5 -4 10 3 6 11 10 16 10 6
0 7 -4 4 -10z m2377 -2 c6 -18 -6 -65 -14 -53 -8 14 -7 65 2 65 4 0 10 -6 12
-12z m-42 -8 c0 -5 -7 -10 -15 -10 -8 0 -15 5 -15 10 0 6 7 10 15 10 8 0 15
-4 15 -10z m-2290 -16 c0 -8 -5 -12 -10 -9 -6 4 -8 11 -5 16 9 14 15 11 15 -7z
m2272 -24 c11 0 18 -7 18 -20 0 -18 -3 -19 -22 -9 -13 7 -25 10 -28 8 -3 -2
-7 7 -8 21 -3 20 -1 23 9 13 7 -7 21 -13 31 -13z m-114 -17 c25 -6 30 -23 7
-23 -8 0 -15 -7 -15 -15 0 -12 -3 -12 -18 3 -10 10 -22 27 -25 36 -6 15 -4 17
10 11 10 -4 28 -10 41 -12z m-1841 -29 c-3 -3 -12 -4 -19 -1 -8 3 -5 6 6 6 11
1 17 -2 13 -5z m1640 -26 c-3 -8 -6 -5 -6 6 -1 11 2 17 5 13 3 -3 4 -12 1 -19z
m270 -4 c-9 -9 -28 6 -21 18 4 6 10 6 17 -1 6 -6 8 -13 4 -17z m83 16 c0 -5
-4 -10 -10 -10 -5 0 -10 5 -10 10 0 6 5 10 10 10 6 0 10 -4 10 -10z m-2033 -6
c-3 -3 -12 -4 -19 -1 -8 3 -5 6 6 6 11 1 17 -2 13 -5z m1991 -33 c3 -8 -1 -12
-9 -9 -7 2 -15 10 -17 17 -3 8 1 12 9 9 7 -2 15 -10 17 -17z m-2091 -7 c-3 -3
-12 -4 -19 -1 -8 3 -5 6 6 6 11 1 17 -2 13 -5z m2196 -6 c28 -17 59 -50 52
-57 -4 -3 -9 -1 -13 5 -13 19 -75 45 -82 34 -8 -12 -40 -3 -40 12 0 5 9 7 19
3 11 -3 22 -1 26 5 8 13 11 13 38 -2z m-2246 -14 c-3 -3 -12 -4 -19 -1 -8 3
-5 6 6 6 11 1 17 -2 13 -5z m-69 -28 c-23 -17 -22 -45 2 -181 11 -60 20 -129
20 -152 0 -24 4 -62 10 -85 5 -24 13 -76 17 -116 10 -79 1 -99 -36 -87 -23 7
-28 27 -36 170 -3 55 -10 174 -15 264 -9 151 -9 166 7 182 10 10 25 18 33 18
12 0 12 -2 -2 -13z m2322 -36 c0 -5 -2 -10 -4 -10 -3 0 -8 5 -11 10 -3 6 -1
10 4 10 6 0 11 -4 11 -10z m124 -23 c15 -15 16 -21 6 -27 -11 -7 -11 -11 -1
-24 9 -11 10 -16 2 -16 -6 0 -11 5 -11 10 0 6 -9 10 -20 10 -22 0 -28 25 -7
33 6 3 0 6 -15 6 -25 1 -37 19 -22 33 9 10 48 -4 68 -25z m356 3 c0 -5 -4 -10
-10 -10 -5 0 -10 5 -10 10 0 6 5 10 10 10 6 0 10 -4 10 -10z m-450 -10 c0 -5
-5 -10 -11 -10 -5 0 -7 5 -4 10 3 6 8 10 11 10 2 0 4 -4 4 -10z m188 -81 c14
-21 7 -59 -9 -59 -6 0 -8 9 -4 19 6 19 -17 51 -36 51 -6 0 -8 4 -5 9 9 14 41
2 54 -20z m60 -171 c-6 -18 -28 -21 -28 -4 0 9 7 16 16 16 9 0 14 -5 12 -12z
m-40 -296 c0 -21 2 -42 3 -48 1 -5 1 -11 0 -14 -1 -3 -4 -24 -6 -47 -4 -45
-11 -63 -25 -63 -17 0 -20 37 -4 68 11 23 12 36 5 49 -9 16 -10 16 -11 -4 0
-13 -5 -23 -10 -23 -24 0 17 118 41 120 4 0 7 -17 7 -38z m-3355 -34 c-10 -21
-12 -21 -18 -5 -10 25 2 54 17 39 8 -8 8 -18 1 -34z m3248 -52 c-8 -10 -9 -16
-1 -21 5 -3 10 -14 10 -23 0 -13 -6 -10 -27 11 -24 23 -26 29 -13 37 8 5 21
10 29 10 10 0 11 -3 2 -14z m-3387 -51 c-4 -22 -2 -41 6 -50 10 -12 9 -15 -4
-15 -13 0 -16 11 -16 50 0 28 5 50 10 50 7 0 8 -13 4 -35z m1906 -15 c0 -5 -4
-10 -10 -10 -5 0 -10 5 -10 10 0 6 5 10 10 10 6 0 10 -4 10 -10z m118 -56 c-7
-15 -14 -21 -16 -15 -2 7 2 18 8 26 18 22 21 18 8 -11z m-2011 -46 c-3 -8 -6
-5 -6 6 -1 11 2 17 5 13 3 -3 4 -12 1 -19z m2943 -74 c0 -8 -4 -12 -10 -9 -5
3 -10 10 -10 16 0 5 5 9 10 9 6 0 10 -7 10 -16z m335 6 c3 -5 1 -10 -4 -10 -6
0 -11 5 -11 10 0 6 2 10 4 10 3 0 8 -4 11 -10z m-374 -22 c9 -17 9 -23 0 -26
-9 -3 -9 -7 0 -18 9 -11 8 -18 -1 -29 -10 -13 -10 -19 2 -33 15 -17 32 -92 21
-92 -3 0 -11 8 -18 17 -11 15 -15 14 -40 -13 -15 -16 -34 -39 -43 -52 -19 -29
-39 -14 -21 16 11 18 10 30 -5 74 -10 29 -23 57 -27 63 -14 14 -11 25 6 25 9
0 20 -11 27 -25 6 -13 15 -22 20 -19 5 3 15 0 23 -6 11 -9 15 -9 15 -1 0 6 -4
11 -10 11 -5 0 -10 6 -10 13 0 7 -13 23 -30 35 -16 13 -30 27 -30 32 0 16 28
11 38 -6 8 -15 11 -15 31 5 11 11 21 28 21 36 0 22 18 18 31 -7z m-2891 -58
c0 -5 -4 -10 -10 -10 -5 0 -10 5 -10 10 0 6 5 10 10 10 6 0 10 -4 10 -10z
m2400 0 c0 -5 -4 -10 -10 -10 -5 0 -10 5 -10 10 0 6 5 10 10 10 6 0 10 -4 10
-10z m-2356 -68 c3 -21 9 -47 12 -59 4 -14 2 -23 -5 -23 -6 0 -11 12 -11 26 0
16 -10 34 -24 45 -28 22 -26 60 4 52 11 -3 20 -18 24 -41z m2396 19 c0 -15
-19 -23 -38 -16 -14 5 -14 7 -2 15 19 12 40 13 40 1z m185 -11 c3 -5 -1 -10
-9 -10 -9 0 -16 5 -16 10 0 6 4 10 9 10 6 0 13 -4 16 -10z m124 -41 c-14 -26
-29 -24 -29 4 0 30 10 40 26 26 10 -8 11 -16 3 -30z m-221 3 c3 -9 -3 -13 -19
-10 -12 1 -24 9 -27 16 -3 9 3 13 19 10 12 -1 24 -9 27 -16z m-2251 -107 c-4
-8 -11 -15 -17 -15 -7 0 -7 6 0 21 13 23 26 19 17 -6z m2908 3 c7 -16 19 -23
43 -24 52 -3 58 -17 21 -49 -31 -25 -34 -26 -46 -9 -7 10 -13 26 -13 37 0 10
-7 25 -15 33 -16 16 -20 34 -7 34 4 0 12 -10 17 -22z m-3064 -126 l9 -24 -29
24 c-17 13 -28 29 -25 36 2 8 4 23 4 35 1 22 12 1 41 -71z m2604 -22 c-3 -5
-10 -10 -16 -10 -5 0 -9 5 -9 10 0 6 7 10 16 10 8 0 12 -4 9 -10z m365 -99 c0
-6 -4 -13 -10 -16 -5 -3 -10 1 -10 9 0 9 5 16 10 16 6 0 10 -4 10 -9z"/>
<path d="M4010 6019 c0 -5 5 -7 10 -4 6 3 10 8 10 11 0 2 -4 4 -10 4 -5 0 -10
-5 -10 -11z"/>
<path d="M3616 5754 c-10 -37 7 -51 59 -52 34 0 48 4 55 18 15 28 -23 53 -57
37 -21 -9 -27 -8 -38 6 -12 16 -13 15 -19 -9z"/>
<path d="M3752 5693 c5 -25 28 -28 28 -4 0 12 -6 21 -16 21 -9 0 -14 -7 -12
-17z"/>
<path d="M3386 5553 c-53 -43 -58 -45 -82 -32 -18 9 -27 10 -32 2 -4 -6 -16
-12 -27 -14 -11 -3 -20 -11 -20 -19 0 -18 46 -42 60 -31 5 5 25 11 42 14 18 4
57 26 87 51 29 24 60 46 67 49 12 4 11 7 -1 16 -24 17 -35 13 -94 -36z"/>
<path d="M3741 5546 c-9 -11 -8 -15 5 -20 23 -9 24 -8 24 14 0 23 -13 26 -29
6z"/>
<path d="M3805 5420 c-3 -5 1 -10 10 -10 9 0 13 5 10 10 -3 6 -8 10 -10 10 -2
0 -7 -4 -10 -10z"/>
<path d="M3404 5409 c-8 -14 11 -33 25 -25 16 10 13 36 -3 36 -8 0 -18 -5 -22
-11z"/>
<path d="M3470 5383 c-19 -9 -44 -16 -54 -17 -30 -2 -31 -25 -2 -36 14 -5 26
-14 26 -20 0 -20 21 -9 30 16 9 22 14 25 40 19 34 -7 35 -6 18 30 -13 29 -12
29 -58 8z"/>
<path d="M3628 5325 c-16 -35 -4 -41 36 -20 27 15 33 22 24 32 -17 21 -48 15
-60 -12z"/>
<path d="M3350 5245 c-7 -9 -11 -18 -8 -20 9 -10 38 7 38 21 0 18 -14 18 -30
-1z"/>
<path d="M3670 5245 c0 -8 4 -15 9 -15 5 0 14 7 21 15 10 13 9 15 -9 15 -12 0
-21 -6 -21 -15z"/>
<path d="M3547 5243 c-12 -11 -7 -33 7 -33 12 0 26 20 26 36 0 7 -26 5 -33 -3z"/>
<path d="M3075 5170 c-3 -5 -1 -10 4 -10 6 0 11 5 11 10 0 6 -2 10 -4 10 -3 0
-8 -4 -11 -10z"/>
<path d="M3103 5108 c-18 -11 -33 -24 -33 -29 0 -14 13 -10 40 11 14 11 33 20
43 20 9 0 17 5 17 10 0 16 -32 10 -67 -12z"/>
<path d="M3844 5105 c-6 -16 49 -79 60 -68 12 13 6 43 -14 63 -24 24 -39 25
-46 5z"/>
<path d="M3775 5049 c-4 -6 -1 -15 6 -20 21 -13 31 -11 27 8 -4 20 -24 28 -33
12z"/>
<path d="M3080 5040 c0 -6 6 -10 13 -10 7 0 3 -7 -7 -15 -24 -18 -9 -40 21
-31 16 5 49 44 41 51 -11 8 -68 13 -68 5z"/>
<path d="M4150 5036 c0 -8 9 -20 21 -26 19 -11 20 -10 10 9 -15 27 -31 36 -31
17z"/>
<path d="M3553 5025 c-3 -9 -3 -18 0 -21 9 -9 27 6 27 22 0 19 -19 18 -27 -1z"/>
<path d="M3650 5030 c0 -5 7 -10 15 -10 8 0 15 5 15 10 0 6 -7 10 -15 10 -8 0
-15 -4 -15 -10z"/>
<path d="M3715 5030 c-7 -12 42 -36 53 -26 4 4 -2 14 -12 22 -23 17 -33 18
-41 4z"/>
<path d="M2999 4982 c-8 -15 -19 -31 -24 -37 -43 -42 -56 -65 -50 -84 6 -19
28 -32 23 -13 -5 16 65 131 80 134 13 3 13 4 0 15 -12 11 -17 8 -29 -15z"/>
<path d="M3227 4996 c-4 -10 -1 -13 9 -9 15 6 19 23 5 23 -5 0 -11 -7 -14 -14z"/>
<path d="M3370 4991 c-59 -32 -110 -51 -133 -51 -12 0 -31 -6 -42 -14 -11 -7
-32 -16 -46 -19 -24 -6 -26 -4 -21 18 2 15 0 25 -7 25 -6 0 -11 -4 -11 -9 0
-13 -62 -71 -77 -71 -18 0 -16 8 7 37 29 37 25 53 -5 20 -14 -15 -30 -27 -34
-27 -5 0 -11 -8 -15 -17 -3 -10 -9 -25 -13 -33 -5 -13 -4 -13 10 -2 9 8 21 11
27 7 27 -17 -3 -34 -70 -40 -19 -2 -38 -4 -42 -4 -5 -1 -8 -7 -8 -15 0 -8 -9
-18 -20 -21 -20 -6 -22 -11 -25 -50 -2 -32 -54 -135 -69 -135 -17 0 -40 45
-31 60 5 8 10 9 18 1 17 -17 34 -13 40 10 5 17 2 20 -15 16 -21 -6 -21 -7 -3
63 6 24 6 24 -17 -4 -13 -16 -45 -56 -71 -90 -26 -33 -50 -72 -54 -86 -3 -14
-13 -31 -22 -38 -15 -12 -14 -15 2 -44 19 -34 16 -48 -7 -29 -13 11 -16 8 -22
-13 -14 -57 25 -61 80 -7 21 22 51 42 67 45 30 6 41 36 14 36 -11 0 -14 7 -9
24 6 24 -10 44 -21 26 -3 -5 -10 -10 -16 -10 -16 0 -10 26 11 45 11 10 20 13
20 7 0 -6 12 -19 26 -28 22 -15 27 -15 34 -3 7 11 12 11 22 1 22 -22 36 -13
67 42 36 62 37 66 15 66 -14 0 -14 3 -4 15 8 10 17 12 23 6 12 -12 41 13 69
57 14 24 27 32 42 30 12 -1 35 7 50 20 16 12 35 22 43 22 8 0 38 18 68 40 30
22 61 40 70 40 27 0 120 48 145 75 28 30 11 33 -40 6z m-300 -151 c0 -5 -9
-14 -20 -20 -22 -12 -27 -1 -8 18 14 14 28 16 28 2z"/>
<path d="M3870 4996 c0 -8 5 -18 10 -21 6 -3 10 1 10 9 0 8 -4 18 -10 21 -5 3
-10 -1 -10 -9z"/>
<path d="M3666 4935 c4 -8 10 -12 15 -9 11 6 2 24 -11 24 -5 0 -7 -7 -4 -15z"/>
<path d="M4199 4945 c-1 -3 -1 -14 -1 -25 0 -35 2 -38 22 -33 23 6 44 38 35
53 -6 10 -54 14 -56 5z"/>
<path d="M4385 4940 c3 -5 8 -10 11 -10 2 0 4 5 4 10 0 6 -5 10 -11 10 -5 0
-7 -4 -4 -10z"/>
<path d="M3437 4916 c-4 -10 -1 -13 9 -9 15 6 19 23 5 23 -5 0 -11 -7 -14 -14z"/>
<path d="M4321 4914 c0 -11 3 -14 6 -6 3 7 2 16 -1 19 -3 4 -6 -2 -5 -13z"/>
<path d="M3502 4888 c-14 -14 -16 -38 -3 -38 23 0 41 14 41 31 0 21 -20 25
-38 7z"/>
<path d="M3730 4880 c0 -5 5 -10 10 -10 6 0 10 5 10 10 0 6 -4 10 -10 10 -5 0
-10 -4 -10 -10z"/>
<path d="M4400 4880 c0 -5 5 -10 11 -10 5 0 7 5 4 10 -3 6 -8 10 -11 10 -2 0
-4 -4 -4 -10z"/>
<path d="M3632 4863 c5 -25 28 -28 28 -4 0 12 -6 21 -16 21 -9 0 -14 -7 -12
-17z"/>
<path d="M3785 4870 c3 -5 8 -10 11 -10 2 0 4 5 4 10 0 6 -5 10 -11 10 -5 0
-7 -4 -4 -10z"/>
<path d="M3690 4860 c0 -5 7 -10 15 -10 8 0 15 5 15 10 0 6 -7 10 -15 10 -8 0
-15 -4 -15 -10z"/>
<path d="M2652 4828 c-14 -14 -16 -38 -2 -38 13 0 32 38 22 44 -5 3 -14 0 -20
-6z"/>
<path d="M3806 4831 c-3 -5 1 -11 9 -15 9 -3 15 0 15 9 0 16 -16 20 -24 6z"/>
<path d="M4450 4804 c0 -31 23 -28 28 4 2 15 -2 22 -12 22 -11 0 -16 -9 -16
-26z"/>
<path d="M3150 4795 c0 -8 5 -15 10 -15 6 0 10 7 10 15 0 8 -4 15 -10 15 -5 0
-10 -7 -10 -15z"/>
<path d="M3591 4796 c-8 -10 -9 -16 -1 -21 15 -9 12 -62 -4 -68 -17 -7 -30
-57 -18 -69 6 -6 19 -5 33 3 48 25 54 25 81 10 15 -9 28 -19 28 -23 0 -13 27
-9 38 5 5 6 13 27 17 45 6 27 4 32 -12 32 -11 0 -25 -6 -32 -12 -10 -11 -14
-9 -23 5 -7 13 -17 17 -33 13 -28 -7 -49 16 -42 45 11 40 -10 62 -32 35z"/>
<path d="M3654 4798 c3 -7 9 -21 12 -31 5 -15 13 -18 37 -13 16 3 36 6 43 6 8
0 14 7 14 16 0 12 -6 15 -23 10 -14 -3 -32 1 -43 9 -24 18 -48 19 -40 3z"/>
<path d="M3400 4789 c0 -5 5 -7 10 -4 6 3 10 8 10 11 0 2 -4 4 -10 4 -5 0 -10
-5 -10 -11z"/>
<path d="M3086 4758 c-20 -28 -16 -31 22 -17 35 12 41 24 16 33 -22 8 -21 9
-38 -16z"/>
<path d="M2720 4739 c0 -5 5 -7 10 -4 6 3 10 8 10 11 0 2 -4 4 -10 4 -5 0 -10
-5 -10 -11z"/>
<path d="M3155 4740 c-3 -5 1 -10 9 -10 9 0 16 5 16 10 0 6 -4 10 -9 10 -6 0
-13 -4 -16 -10z"/>
<path d="M3795 4670 c-18 -20 -18 -20 38 -20 73 0 79 20 11 34 -23 5 -34 2
-49 -14z"/>
<path d="M2551 4636 c-8 -10 -9 -16 -1 -21 13 -8 30 3 30 21 0 18 -14 18 -29
0z"/>
<path d="M3414 4625 c-4 -10 -10 -12 -18 -7 -14 12 -148 0 -153 -13 -3 -11 5
-12 125 -20 67 -4 84 -2 89 10 5 16 -13 45 -29 45 -5 0 -11 -7 -14 -15z"/>
<path d="M5355 4621 c29 -28 60 -31 60 -6 0 16 -8 21 -40 23 -40 3 -40 3 -20
-17z"/>
<path d="M3071 4606 c-9 -10 -9 -16 -1 -21 12 -7 40 11 40 26 0 14 -26 10 -39
-5z"/>
<path d="M3587 4606 c-5 -13 2 -15 44 -13 70 5 81 21 15 25 -41 2 -55 -1 -59
-12z"/>
<path d="M3005 4600 c-11 -17 5 -32 21 -19 8 6 14 15 14 20 0 12 -27 11 -35
-1z"/>
<path d="M3475 4600 c-8 -12 20 -24 35 -15 5 3 10 10 10 16 0 12 -37 12 -45
-1z"/>
<path d="M5260 4581 c0 -17 18 -31 41 -31 15 0 10 22 -8 36 -25 18 -33 17 -33
-5z"/>
<path d="M2420 4567 c0 -20 9 -25 31 -20 28 8 24 33 -6 33 -14 0 -25 -6 -25
-13z"/>
<path d="M2562 4558 c2 -13 9 -23 17 -23 7 0 17 10 22 23 7 19 5 22 -17 22
-21 0 -25 -4 -22 -22z"/>
<path d="M2920 4549 c0 -5 5 -7 10 -4 6 3 10 8 10 11 0 2 -4 4 -10 4 -5 0 -10
-5 -10 -11z"/>
<path d="M2885 4530 c-3 -5 -2 -10 4 -10 5 0 13 5 16 10 3 6 2 10 -4 10 -5 0
-13 -4 -16 -10z"/>
<path d="M5340 4490 c0 -5 5 -10 11 -10 5 0 7 5 4 10 -3 6 -8 10 -11 10 -2 0
-4 -4 -4 -10z"/>
<path d="M5280 4440 c0 -5 5 -10 11 -10 5 0 7 5 4 10 -3 6 -8 10 -11 10 -2 0
-4 -4 -4 -10z"/>
<path d="M4895 4410 c-8 -13 3 -30 21 -30 18 0 18 14 0 29 -10 8 -16 9 -21 1z"/>
<path d="M5320 4405 c0 -8 7 -15 15 -15 8 0 15 4 15 9 0 5 -7 11 -15 15 -9 3
-15 0 -15 -9z"/>
<path d="M3990 4352 c0 -14 11 -21 26 -15 8 3 11 9 8 14 -7 11 -34 12 -34 1z"/>
<path d="M4062 4348 c3 -7 14 -17 26 -23 12 -5 22 -15 22 -21 0 -7 7 -14 15
-18 8 -3 15 -16 15 -28 0 -13 4 -29 9 -37 12 -19 33 -3 26 20 -4 11 -2 19 4
19 6 0 11 5 11 10 0 17 -51 60 -70 60 -10 0 -23 7 -30 15 -15 18 -33 20 -28 3z"/>
<path d="M3966 4284 c28 -52 25 -67 -9 -38 -32 28 -67 46 -67 35 0 -6 7 -14
17 -19 10 -6 14 -16 10 -26 -9 -23 -26 -20 -37 7 l-9 22 0 -22 c-1 -25 -20
-30 -39 -11 -10 10 -11 5 -6 -20 5 -25 3 -32 -9 -32 -22 0 -31 18 -17 35 10
12 9 15 -7 15 -26 0 -32 -7 -26 -31 3 -10 15 -22 28 -25 17 -4 21 -11 18 -32
-2 -15 0 -20 3 -12 15 41 29 60 41 60 17 0 17 0 -7 -56 -15 -33 -18 -50 -10
-58 8 -8 12 -4 16 11 7 25 24 34 54 26 24 -6 24 -37 0 -39 -32 -2 -36 -5 -50
-36 -7 -18 -22 -42 -32 -52 -25 -27 -22 -39 7 -32 20 5 27 2 37 -19 13 -29 23
-32 32 -9 4 11 -3 25 -20 39 -20 17 -24 28 -19 44 6 21 8 21 24 7 10 -9 23
-16 29 -16 19 0 14 28 -8 40 -11 6 -20 16 -20 22 0 7 5 6 15 -2 8 -6 23 -9 35
-5 15 5 22 0 30 -20 13 -34 13 -35 -5 -35 -21 0 -19 -10 9 -45 29 -36 42 -29
22 10 -14 26 -13 31 5 56 30 43 26 48 -33 50 -10 0 -18 4 -18 10 0 5 5 8 11 7
13 -3 36 28 28 37 -4 3 -26 9 -49 13 -24 4 -45 13 -48 20 -7 22 26 24 71 4 32
-14 49 -30 63 -58 11 -22 29 -43 40 -48 31 -14 48 -44 34 -61 -8 -9 -6 -14 6
-19 23 -9 24 -8 24 18 0 34 -10 56 -25 56 -20 0 -60 59 -48 71 6 6 18 -2 31
-21 13 -16 29 -30 37 -30 16 0 20 16 6 24 -4 3 -11 25 -15 48 -7 40 -8 42 -21
24 -11 -15 -18 -16 -28 -8 -10 9 -16 9 -25 0 -9 -9 -15 -9 -24 1 -10 11 -10
14 0 18 6 3 12 11 12 19 0 8 5 14 10 14 20 0 9 27 -20 48 -16 13 -30 29 -30
37 0 8 -7 15 -15 15 -8 0 -15 5 -15 10 0 6 -4 10 -9 10 -5 0 2 -21 15 -46z m4
-79 c0 -8 -7 -15 -15 -15 -16 0 -20 12 -8 23 11 12 23 8 23 -8z"/>
<path d="M4257 4310 c10 -11 22 -20 27 -20 5 0 1 9 -9 20 -10 11 -22 20 -26
20 -5 0 -1 -9 8 -20z"/>
<path d="M4005 4311 c-3 -5 15 -26 40 -46 25 -21 45 -44 45 -51 0 -7 14 -21
31 -30 25 -12 30 -21 26 -40 -2 -13 2 -29 9 -35 10 -8 14 -3 20 25 8 45 0 66
-25 66 -19 0 -51 52 -51 84 0 18 -15 21 -25 6 -10 -16 -22 -12 -28 10 -5 21
-31 27 -42 11z"/>
<path d="M5400 4299 c0 -13 25 -39 39 -39 18 0 21 18 5 34 -18 18 -44 21 -44
5z"/>
<path d="M3815 4279 c-4 -6 -5 -12 -2 -15 7 -7 37 7 37 17 0 13 -27 11 -35 -2z"/>
<path d="M2291 4235 c-17 -20 -31 -42 -31 -50 0 -8 -10 -21 -22 -30 -23 -16
-23 -16 -3 -31 26 -19 37 -14 57 27 57 118 57 149 -1 84z"/>
<path d="M2175 4239 c-12 -19 5 -23 22 -6 16 16 16 17 1 17 -9 0 -20 -5 -23
-11z"/>
<path d="M5050 4228 c0 -13 10 -34 21 -48 l20 -25 -7 25 c-5 14 -8 35 -7 48 0
13 -5 22 -13 22 -8 0 -14 -10 -14 -22z"/>
<path d="M4220 4225 c-12 -15 -4 -59 9 -51 7 5 13 66 7 66 -2 0 -9 -7 -16 -15z"/>
<path d="M2995 4220 c-3 -6 4 -14 17 -19 29 -11 35 -6 18 14 -14 17 -26 19
-35 5z"/>
<path d="M3096 4210 c8 -31 10 -33 23 -29 5 2 1 15 -10 29 l-20 25 7 -25z"/>
<path d="M4299 4213 c12 -24 31 -39 31 -25 0 5 -10 17 -21 28 -22 19 -22 19
-10 -3z"/>
<path d="M4502 4209 c2 -7 10 -15 17 -17 8 -3 12 1 9 9 -2 7 -10 15 -17 17 -8
3 -12 -1 -9 -9z"/>
<path d="M3255 4200 c-3 -5 -1 -10 4 -10 6 0 11 5 11 10 0 6 -2 10 -4 10 -3 0
-8 -4 -11 -10z"/>
<path d="M2890 4180 c0 -14 -7 -20 -21 -20 -18 0 -20 -4 -15 -25 4 -14 14 -34
23 -44 13 -16 20 -17 37 -8 11 7 26 19 32 27 11 13 14 13 31 -1 10 -9 26 -19
36 -22 22 -8 25 -77 2 -77 -16 0 -20 -15 -7 -24 12 -7 57 55 54 73 -2 7 10 28
27 45 l31 32 -30 17 c-25 15 -30 16 -30 3 0 -8 5 -18 10 -21 8 -5 7 -11 -1
-21 -15 -18 -39 -18 -39 1 0 17 -16 20 -25 5 -11 -18 -23 -2 -18 24 7 36 -14
41 -31 8 -16 -31 -41 -46 -58 -36 -5 3 0 15 12 26 20 19 20 21 4 39 -21 24
-24 24 -24 -1z"/>
<path d="M3696 4181 c-8 -12 41 -54 53 -46 6 3 11 13 11 22 0 13 -3 13 -15 3
-9 -7 -19 -9 -23 -5 -4 4 -1 10 6 12 6 3 12 9 12 14 0 11 -37 12 -44 0z"/>
<path d="M4255 4180 c3 -5 8 -10 11 -10 2 0 4 5 4 10 0 6 -5 10 -11 10 -5 0
-7 -4 -4 -10z"/>
<path d="M2746 4171 c-4 -7 -5 -15 -2 -18 9 -9 19 4 14 18 -4 11 -6 11 -12 0z"/>
<path d="M3630 4166 c-13 -16 -7 -46 9 -46 12 0 22 43 12 53 -4 4 -14 1 -21
-7z"/>
<path d="M3480 4140 c0 -16 5 -30 10 -30 6 0 10 14 10 30 0 17 -4 30 -10 30
-5 0 -10 -13 -10 -30z"/>
<path d="M3547 4146 c-3 -8 3 -26 14 -39 10 -14 19 -32 19 -41 0 -9 5 -16 10
-16 14 0 12 19 -7 67 -19 45 -27 52 -36 29z"/>
<path d="M4220 4142 c0 -12 9 -26 20 -32 16 -8 20 -8 20 3 0 8 -9 22 -20 32
-19 18 -20 17 -20 -3z"/>
<path d="M2687 4143 c-14 -14 -6 -22 23 -21 27 1 28 2 12 14 -20 15 -26 17
-35 7z"/>
<path d="M2786 4125 c6 -33 20 -52 30 -42 4 4 0 15 -8 24 -9 10 -18 25 -22 33
-3 8 -4 2 0 -15z"/>
<path d="M4360 4129 c7 -11 14 -18 17 -15 8 8 -5 36 -17 36 -7 0 -7 -6 0 -21z"/>
<path d="M3152 4108 c6 -18 28 -21 28 -4 0 9 -7 16 -16 16 -9 0 -14 -5 -12
-12z"/>
<path d="M3216 4101 c-14 -16 -15 -20 -2 -30 20 -17 36 -6 36 25 0 29 -11 31
-34 5z"/>
<path d="M3723 4109 c-12 -15 -6 -66 8 -75 15 -9 21 21 12 56 -7 26 -11 30
-20 19z"/>
<path d="M3760 4101 c0 -12 6 -21 14 -21 8 0 17 -6 20 -12 3 -7 4 0 3 17 -2
35 -37 50 -37 16z"/>
<path d="M4670 4089 c0 -34 -29 -91 -43 -86 -6 2 -19 17 -28 33 -12 21 -23 28
-40 26 -31 -3 -37 -12 -16 -23 11 -7 17 -22 17 -44 0 -19 -2 -35 -4 -35 -3 0
-17 11 -32 25 -29 27 -44 25 -44 -5 0 -10 -4 -21 -10 -25 -5 -3 -7 -12 -4 -19
4 -11 -46 -83 -79 -111 -14 -12 -30 -39 -65 -110 -20 -39 -25 -63 -24 -111 2
-74 19 -116 66 -171 35 -39 149 -114 184 -120 9 -1 34 -6 55 -9 21 -4 41 -13
44 -20 7 -18 33 -18 33 -1 0 18 38 57 55 57 9 0 15 -9 15 -21 0 -17 3 -19 13
-11 10 9 19 7 36 -4 27 -19 37 -13 22 14 -12 23 8 46 52 56 20 5 27 11 23 22
-3 8 1 28 9 44 8 16 12 36 9 44 -4 11 0 16 14 16 13 0 22 9 26 24 4 15 13 23
23 22 13 -1 17 5 15 24 -1 14 -3 32 -3 40 -1 26 -28 78 -43 83 -8 3 -24 3 -37
0 -16 -5 -20 -3 -14 7 5 8 22 11 54 7 44 -5 45 -4 24 10 -13 9 -23 27 -24 42
-1 17 -3 20 -6 9 -2 -10 -11 -18 -19 -18 -14 0 -18 12 -15 38 1 8 -5 22 -14
32 -8 9 -13 24 -9 34 4 12 1 16 -15 16 -25 0 -27 18 -4 35 17 12 17 14 -2 35
-14 15 -28 20 -47 18 -41 -6 -58 19 -23 32 14 5 30 10 35 10 14 0 21 17 14 34
-8 21 -18 20 -40 -1 -17 -17 -17 -17 -12 4 7 28 -5 37 -56 40 -23 2 -44 10
-52 20 -12 17 -13 16 -14 -8z m70 -158 c0 -10 -75 -61 -91 -61 -21 0 -2 25 37
46 44 25 54 28 54 15z m130 -161 c0 -5 -2 -10 -4 -10 -3 0 -8 5 -11 10 -3 6
-1 10 4 10 6 0 11 -4 11 -10z m63 -124 c6 -15 -1 -26 -15 -26 -4 0 -8 9 -8 20
0 23 15 27 23 6z m-43 -187 c0 -18 -2 -19 -15 -9 -15 12 -12 30 6 30 5 0 9
-10 9 -21z"/>
<path d="M2270 4080 c-9 -16 -8 -18 5 -14 8 4 15 12 15 20 0 20 -7 17 -20 -6z"/>
<path d="M3310 4085 c0 -8 5 -15 10 -15 6 0 10 7 10 15 0 8 -4 15 -10 15 -5 0
-10 -7 -10 -15z"/>
<path d="M3651 4084 c0 -11 3 -14 6 -6 3 7 2 16 -1 19 -3 4 -6 -2 -5 -13z"/>
<path d="M2205 4080 c3 -5 10 -10 16 -10 5 0 9 5 9 10 0 6 -7 10 -16 10 -8 0
-12 -4 -9 -10z"/>
<path d="M3520 4071 c0 -25 6 -27 13 -6 4 8 2 17 -3 20 -6 4 -10 -3 -10 -14z"/>
<path d="M4600 4070 c0 -13 7 -20 20 -20 23 0 26 10 8 28 -18 18 -28 15 -28
-8z"/>
<path d="M3440 4071 c0 -6 5 -13 10 -16 6 -3 10 1 10 9 0 9 -4 16 -10 16 -5 0
-10 -4 -10 -9z"/>
<path d="M2720 4060 c0 -5 5 -10 11 -10 5 0 7 5 4 10 -3 6 -8 10 -11 10 -2 0
-4 -4 -4 -10z"/>
<path d="M2948 4059 c-33 -19 -9 -86 26 -73 24 9 19 24 -9 24 -30 0 -33 15 -5
30 11 6 20 15 20 20 0 13 -10 12 -32 -1z"/>
<path d="M3101 4046 c-18 -32 -10 -60 17 -64 12 -2 22 2 22 8 0 6 -5 8 -11 5
-7 -5 -8 4 -4 28 8 42 -7 56 -24 23z"/>
<path d="M2790 4044 c0 -8 5 -12 10 -9 6 4 8 11 5 16 -9 14 -15 11 -15 -7z"/>
<path d="M3380 4050 c0 -5 5 -10 10 -10 6 0 10 5 10 10 0 6 -4 10 -10 10 -5 0
-10 -4 -10 -10z"/>
<path d="M3810 4040 c0 -19 3 -21 12 -12 9 9 9 15 0 24 -9 9 -12 7 -12 -12z"/>
<path d="M3160 4034 c0 -9 5 -14 12 -12 18 6 21 28 4 28 -9 0 -16 -7 -16 -16z"/>
<path d="M3263 4035 c-8 -22 6 -33 17 -15 13 20 12 30 0 30 -6 0 -13 -7 -17
-15z"/>
<path d="M4036 4033 c-12 -12 -6 -33 9 -33 8 0 15 6 15 14 0 17 -14 28 -24 19z"/>
<path d="M2097 4023 c-11 -10 -8 -43 3 -43 9 0 30 31 30 44 0 8 -25 7 -33 -1z"/>
<path d="M3580 4016 c0 -8 7 -16 15 -20 10 -3 15 -20 16 -48 1 -40 1 -41 10
-16 8 21 6 36 -6 63 -18 36 -35 46 -35 21z"/>
<path d="M3680 4009 c0 -5 5 -7 10 -4 6 3 10 8 10 11 0 2 -4 4 -10 4 -5 0 -10
-5 -10 -11z"/>
<path d="M4180 4003 c0 -12 5 -25 10 -28 13 -8 13 15 0 35 -8 12 -10 11 -10
-7z"/>
<path d="M3440 3995 c0 -8 5 -15 10 -15 6 0 10 7 10 15 0 8 -4 15 -10 15 -5 0
-10 -7 -10 -15z"/>
<path d="M2788 3983 c-22 -6 -31 -32 -13 -39 18 -7 45 13 45 32 0 14 -3 15
-32 7z"/>
<path d="M3190 3980 c0 -5 5 -10 10 -10 6 0 10 5 10 10 0 6 -4 10 -10 10 -5 0
-10 -4 -10 -10z"/>
<path d="M3270 3968 c0 -19 2 -20 10 -8 13 19 13 30 0 30 -5 0 -10 -10 -10
-22z"/>
<path d="M3535 3980 c-4 -6 -3 -16 3 -22 6 -6 12 -6 17 2 4 6 3 16 -3 22 -6 6
-12 6 -17 -2z"/>
<path d="M2250 3960 c-9 -16 -8 -20 5 -20 8 0 15 2 15 4 0 2 3 11 6 20 9 23
-13 20 -26 -4z"/>
<path d="M2853 3954 c-22 -21 -31 -44 -15 -44 18 1 43 30 40 47 -3 17 -4 17
-25 -3z"/>
<path d="M4052 3972 c-17 -5 -15 -22 2 -22 8 0 16 -6 19 -12 2 -7 6 -11 9 -8
9 9 -17 47 -30 42z"/>
<path d="M4430 3960 c0 -5 5 -10 11 -10 5 0 7 5 4 10 -3 6 -8 10 -11 10 -2 0
-4 -4 -4 -10z"/>
<path d="M2910 3950 c0 -5 5 -10 10 -10 6 0 10 5 10 10 0 6 -4 10 -10 10 -5 0
-10 -4 -10 -10z"/>
<path d="M3180 3955 c0 -18 19 -40 26 -32 4 4 0 15 -9 24 -9 10 -17 13 -17 8z"/>
<path d="M3123 3933 c-15 -5 -18 -33 -4 -33 8 0 25 30 19 35 -2 1 -9 0 -15 -2z"/>
<path d="M3465 3931 c-3 -5 -1 -12 5 -16 5 -3 10 1 10 9 0 18 -6 21 -15 7z"/>
<path d="M3685 3930 c3 -5 11 -10 16 -10 6 0 7 5 4 10 -3 6 -11 10 -16 10 -6
0 -7 -4 -4 -10z"/>
<path d="M2182 3918 c-12 -12 -17 -38 -7 -38 12 0 55 33 55 41 0 13 -34 11
-48 -3z"/>
<path d="M3725 3920 c3 -5 11 -10 16 -10 6 0 7 5 4 10 -3 6 -11 10 -16 10 -6
0 -7 -4 -4 -10z"/>
<path d="M4020 3920 c0 -5 7 -10 16 -10 8 0 12 5 9 10 -3 6 -10 10 -16 10 -5
0 -9 -4 -9 -10z"/>
<path d="M4383 3895 c1 -19 4 -35 9 -35 11 0 21 47 13 59 -13 22 -23 10 -22
-24z"/>
<path d="M5396 3908 c-26 -40 -36 -105 -19 -125 11 -14 15 -15 20 -4 3 7 14
22 25 33 14 14 18 30 16 65 -3 53 -20 65 -42 31z"/>
<path d="M3937 3913 c-4 -3 -7 -12 -7 -19 0 -11 18 -12 59 -5 2 1 -2 8 -9 16
-13 16 -32 19 -43 8z"/>
<path d="M2895 3900 c-3 -5 -1 -10 4 -10 6 0 11 5 11 10 0 6 -2 10 -4 10 -3 0
-8 -4 -11 -10z"/>
<path d="M3010 3900 c0 -5 5 -10 10 -10 6 0 10 5 10 10 0 6 -4 10 -10 10 -5 0
-10 -4 -10 -10z"/>
<path d="M4116 3895 c4 -8 8 -15 10 -15 2 0 4 7 4 15 0 8 -4 15 -10 15 -5 0
-7 -7 -4 -15z"/>
<path d="M3590 3880 c0 -22 34 -44 56 -36 23 9 16 36 -12 46 -36 14 -44 13
-44 -10z"/>
<path d="M4321 3884 c0 -11 3 -14 6 -6 3 7 2 16 -1 19 -3 4 -6 -2 -5 -13z"/>
<path d="M3076 3881 c-4 -7 -5 -15 -2 -18 9 -9 19 4 14 18 -4 11 -6 11 -12 0z"/>
<path d="M3390 3870 c0 -5 5 -10 11 -10 5 0 7 5 4 10 -3 6 -8 10 -11 10 -2 0
-4 -4 -4 -10z"/>
<path d="M4140 3865 c0 -7 10 -15 23 -19 34 -9 40 -7 28 8 -16 19 -51 27 -51
11z"/>
<path d="M3205 3860 c-3 -5 -1 -10 4 -10 6 0 11 5 11 10 0 6 -2 10 -4 10 -3 0
-8 -4 -11 -10z"/>
<path d="M3490 3861 c0 -17 89 -101 107 -101 13 0 2 16 -37 55 -54 53 -70 64
-70 46z"/>
<path d="M3692 3853 c2 -10 14 -20 28 -22 25 -3 25 -3 6 18 -23 26 -39 27 -34
4z"/>
<path d="M4065 3861 c-7 -13 24 -43 36 -35 6 4 3 14 -7 25 -20 22 -21 22 -29
10z"/>
<path d="M4265 3850 c3 -5 8 -10 11 -10 2 0 4 5 4 10 0 6 -5 10 -11 10 -5 0
-7 -4 -4 -10z"/>
<path d="M4340 3840 c0 -5 5 -10 11 -10 5 0 7 5 4 10 -3 6 -8 10 -11 10 -2 0
-4 -4 -4 -10z"/>
<path d="M4300 3810 c0 -5 5 -10 10 -10 6 0 10 5 10 10 0 6 -4 10 -10 10 -5 0
-10 -4 -10 -10z"/>
<path d="M3152 3793 c2 -10 11 -19 21 -21 16 -3 17 -1 7 17 -13 25 -33 28 -28
4z"/>
<path d="M3630 3795 c0 -13 8 -16 38 -13 20 2 37 8 37 13 0 6 -17 11 -37 13
-30 3 -38 0 -38 -13z"/>
<path d="M3737 3803 c-18 -18 -6 -40 23 -41 29 -1 58 27 43 42 -8 8 -58 8 -66
-1z"/>
<path d="M4123 3791 c-9 -14 -13 -14 -37 -2 -35 19 -47 4 -17 -20 21 -18 26
-18 41 -4 19 17 46 20 55 5 4 -6 11 -8 16 -4 13 8 -5 30 -30 37 -10 2 -22 -3
-28 -12z"/>
<path d="M3240 3775 c0 -8 2 -15 4 -15 2 0 11 -3 20 -6 23 -9 20 9 -4 24 -17
10 -20 10 -20 -3z"/>
<path d="M3435 3740 c3 -5 8 -10 11 -10 2 0 4 5 4 10 0 6 -5 10 -11 10 -5 0
-7 -4 -4 -10z"/>
<path d="M4135 3721 c-19 -8 -19 -8 2 -19 12 -7 33 -12 47 -12 19 0 26 -5 26
-20 0 -11 4 -20 9 -20 5 0 11 9 14 20 3 12 0 20 -8 20 -7 0 -24 9 -38 20 -14
11 -27 20 -29 19 -1 0 -12 -4 -23 -8z"/>
<path d="M1990 3695 c0 -15 4 -24 10 -20 6 3 10 12 10 20 0 8 -4 17 -10 20 -6
4 -10 -5 -10 -20z"/>
<path d="M3430 3650 c10 -18 50 -29 50 -14 0 10 -33 33 -48 34 -10 0 -10 -5
-2 -20z"/>
<path d="M1981 3644 c0 -11 3 -14 6 -6 3 7 2 16 -1 19 -3 4 -6 -2 -5 -13z"/>
<path d="M5353 3605 c-3 -9 -3 -18 0 -22 10 -10 37 6 37 22 0 20 -29 20 -37 0z"/>
<path d="M5424 3576 c-4 -10 -2 -27 4 -37 7 -10 12 -35 12 -54 0 -19 5 -35 10
-35 15 0 12 104 -4 126 -14 18 -15 18 -22 0z"/>
<path d="M5100 3520 c0 -5 5 -10 11 -10 5 0 7 5 4 10 -3 6 -8 10 -11 10 -2 0
-4 -4 -4 -10z"/>
<path d="M2150 3504 c0 -8 5 -12 10 -9 6 3 10 10 10 16 0 5 -4 9 -10 9 -5 0
-10 -7 -10 -16z"/>
<path d="M4956 3463 c9 -36 7 -35 38 -27 33 8 34 24 1 24 -16 0 -25 6 -25 15
0 8 -5 15 -10 15 -6 0 -8 -11 -4 -27z"/>
<path d="M2035 3449 c-9 -14 -2 -20 14 -10 8 6 9 11 3 15 -6 3 -14 1 -17 -5z"/>
<path d="M4950 3366 c0 -2 7 -7 16 -10 8 -3 12 -2 9 4 -6 10 -25 14 -25 6z"/>
<path d="M4920 3335 c0 -8 7 -15 16 -15 14 0 14 3 4 15 -7 8 -14 15 -16 15 -2
0 -4 -7 -4 -15z"/>
<path d="M4870 3305 c0 -9 5 -15 11 -13 6 2 11 8 11 13 0 5 -5 11 -11 13 -6 2
-11 -4 -11 -13z"/>
<path d="M5080 3305 c0 -8 5 -15 10 -15 6 0 10 7 10 15 0 8 -4 15 -10 15 -5 0
-10 -7 -10 -15z"/>
<path d="M4955 3269 c-9 -14 -2 -20 14 -10 8 6 9 11 3 15 -6 3 -14 1 -17 -5z"/>
<path d="M4833 3256 c2 -6 21 -12 41 -14 48 -4 39 14 -9 20 -22 2 -34 0 -32
-6z"/>
<path d="M4735 3051 c-3 -5 0 -13 5 -16 15 -9 60 3 60 15 0 13 -57 13 -65 1z"/>
<path d="M4970 3031 c0 -12 9 -20 28 -24 33 -6 36 -4 27 22 -9 28 -55 29 -55
2z"/>
<path d="M4910 3030 c0 -5 5 -10 10 -10 6 0 10 5 10 10 0 6 -4 10 -10 10 -5 0
-10 -4 -10 -10z"/>
<path d="M5120 3031 c0 -6 4 -13 10 -16 6 -3 7 1 4 9 -7 18 -14 21 -14 7z"/>
<path d="M4811 3010 c-1 -30 12 -60 25 -60 8 0 14 7 14 15 0 8 -5 15 -10 15
-6 0 -15 10 -20 23 -5 12 -9 15 -9 7z"/>
<path d="M4660 2990 c0 -5 5 -10 10 -10 6 0 10 5 10 10 0 6 -4 10 -10 10 -5 0
-10 -4 -10 -10z"/>
<path d="M5040 2940 c0 -5 5 -10 10 -10 6 0 10 5 10 10 0 6 -4 10 -10 10 -5 0
-10 -4 -10 -10z"/>
<path d="M5196 2806 c3 -9 11 -16 16 -16 13 0 5 23 -10 28 -7 2 -10 -2 -6 -12z"/>
<path d="M1892 2759 c-49 -32 -59 -109 -12 -94 17 5 21 1 26 -24 7 -32 24 -40
41 -18 12 14 11 126 -1 145 -10 16 -16 15 -54 -9z m53 -109 c-3 -5 -11 -10
-16 -10 -6 0 -7 5 -4 10 3 6 11 10 16 10 6 0 7 -4 4 -10z"/>
<path d="M5210 2720 c0 -5 7 -10 16 -10 8 0 12 5 9 10 -3 6 -10 10 -16 10 -5
0 -9 -4 -9 -10z"/>
<path d="M5210 2651 c0 -6 5 -13 10 -16 6 -3 10 1 10 9 0 9 -4 16 -10 16 -5 0
-10 -4 -10 -9z"/>
<path d="M1810 2600 c0 -5 5 -10 10 -10 6 0 10 5 10 10 0 6 -4 10 -10 10 -5 0
-10 -4 -10 -10z"/>
<path d="M1922 2558 c-14 -14 -16 -42 -3 -34 7 5 23 46 17 46 -1 0 -7 -5 -14
-12z"/>
<path d="M5317 2414 c-8 -8 1 -24 14 -24 5 0 9 7 9 15 0 15 -12 20 -23 9z"/>
<path d="M5363 2403 c-16 -6 -17 -33 -3 -33 11 0 26 28 19 34 -2 2 -10 1 -16
-1z"/>
<path d="M1831 2124 c0 -11 3 -14 6 -6 3 7 2 16 -1 19 -3 4 -6 -2 -5 -13z"/>
<path d="M1787 2113 c-4 -3 -7 -11 -7 -17 0 -6 5 -5 12 2 6 6 9 14 7 17 -3 3
-9 2 -12 -2z"/>
<path d="M5162 1771 c4 -30 18 -36 43 -16 19 14 19 15 1 8 -13 -4 -24 0 -33
13 -14 18 -14 18 -11 -5z"/>
<path d="M5140 1722 c-36 -5 -50 -22 -18 -22 15 0 33 -3 42 -6 10 -4 16 -1 16
9 0 20 -9 24 -40 19z"/>
<path d="M3380 3557 c0 -16 48 -52 57 -43 7 7 -15 34 -39 47 -13 7 -18 6 -18
-4z"/>
<path d="M2512 3013 c5 -25 28 -28 28 -4 0 12 -6 21 -16 21 -9 0 -14 -7 -12
-17z"/>
<path d="M2575 3000 c-3 -5 1 -10 9 -10 9 0 16 5 16 10 0 6 -4 10 -9 10 -6 0
-13 -4 -16 -10z"/>
<path d="M2677 2994 c-13 -13 -7 -24 14 -24 11 0 19 5 17 12 -5 14 -22 21 -31
12z"/>
<path d="M5395 5840 c-15 -24 8 -78 48 -113 163 -143 237 -211 237 -219 0 -5
-5 -18 -10 -29 -21 -39 109 -215 203 -275 21 -14 40 -33 44 -42 3 -9 11 -31
19 -49 8 -18 13 -56 12 -88 -3 -52 0 -59 24 -77 29 -23 78 -18 78 7 0 8 -4 15
-9 15 -9 0 -36 58 -30 64 8 8 54 9 71 2 9 -4 29 -1 47 8 16 9 37 16 46 16 9 0
18 7 22 16 3 8 12 13 20 9 12 -4 14 1 9 28 -5 29 -2 36 25 56 20 15 28 28 25
38 -4 9 -1 22 5 29 17 20 3 58 -26 74 -36 19 -33 50 5 50 36 0 38 9 6 39 -20
19 -32 22 -59 17 -25 -5 -38 -2 -47 9 -7 8 -24 15 -39 15 -14 0 -37 9 -51 20
-22 17 -23 19 -7 26 9 3 30 1 46 -6 41 -17 76 2 58 30 -6 11 -14 20 -18 20 -3
0 -29 20 -58 45 -29 25 -58 45 -65 45 -7 0 -37 13 -67 30 -30 16 -65 30 -79
30 -14 0 -43 14 -64 30 -22 17 -50 30 -63 30 -20 0 -22 -4 -17 -25 9 -38 -23
-32 -70 12 -66 63 -107 85 -169 93 -31 3 -63 12 -69 18 -15 15 -25 15 -33 2z
m760 -540 c8 -12 -16 -50 -33 -50 -19 0 -26 28 -12 45 14 17 36 20 45 5z m53
-125 c2 -23 -2 -35 -10 -35 -7 0 -31 -9 -52 -21 -43 -23 -81 -22 -81 2 0 18
50 64 86 78 44 18 55 13 57 -24z"/>
<path d="M5305 5690 c-9 -14 1 -27 25 -33 22 -6 27 12 8 31 -15 15 -25 15 -33
2z"/>
<path d="M5340 5510 c0 -5 4 -10 9 -10 6 0 13 5 16 10 3 6 -1 10 -9 10 -9 0
-16 -4 -16 -10z"/>
<path d="M5520 5236 c0 -9 5 -16 10 -16 6 0 10 4 10 9 0 6 -4 13 -10 16 -5 3
-10 -1 -10 -9z"/>
<path d="M6283 5139 c-27 -27 -15 -47 31 -54 42 -7 86 6 86 24 0 28 -96 52
-117 30z"/>
<path d="M690 5068 c-59 -34 -75 -48 -77 -68 -1 -14 0 -19 3 -12 4 8 27 27 51
43 l46 28 21 -42 c18 -35 26 -42 51 -42 27 0 30 3 28 29 -1 16 -14 41 -28 56
-19 20 -22 29 -13 38 23 23 -8 12 -82 -30z"/>
<path d="M6145 4940 c-8 -12 20 -24 35 -15 5 3 10 10 10 16 0 12 -37 12 -45
-1z"/>
<path d="M6520 4910 c0 -6 6 -26 14 -44 11 -26 24 -37 62 -50 78 -28 104 -31
104 -12 0 25 -44 64 -103 91 -57 27 -77 31 -77 15z"/>
<path d="M1070 4699 c0 -5 5 -7 10 -4 6 3 10 8 10 11 0 2 -4 4 -10 4 -5 0 -10
-5 -10 -11z"/>
<path d="M6620 4430 c0 -13 7 -20 20 -20 13 0 20 7 20 20 0 13 -7 20 -20 20
-13 0 -20 -7 -20 -20z"/>
<path d="M3230 1635 c0 -8 7 -15 15 -15 8 0 15 7 15 15 0 8 -7 15 -15 15 -8 0
-15 -7 -15 -15z"/>
<path d="M2875 1503 c-59 -4 -175 -25 -180 -33 -12 -20 161 -64 211 -54 50 9
64 1 54 -33 -5 -15 -12 -41 -17 -57 -9 -33 -55 -64 -95 -65 -21 -1 -28 -6 -28
-22 0 -12 -5 -19 -12 -16 -7 2 -12 14 -11 26 4 32 -49 29 -76 -5 -16 -21 -26
-25 -46 -20 -20 5 -24 11 -20 29 6 22 3 23 -37 22 -38 -2 -45 -6 -57 -34 -15
-31 -38 -45 -27 -15 8 22 -12 55 -32 53 -9 -2 -41 1 -71 5 -47 7 -56 6 -68
-10 -13 -18 -15 -18 -24 -1 -6 9 -20 17 -33 17 -12 0 -41 9 -63 20 -43 21
-103 18 -103 -4 0 -6 -9 -17 -20 -24 -11 -7 -20 -20 -20 -30 0 -19 -39 -62
-55 -62 -5 0 -16 -7 -26 -16 -14 -12 -16 -22 -9 -40 8 -20 6 -24 -9 -24 -37 0
-81 -30 -81 -56 0 -14 4 -23 10 -19 5 3 3 -7 -5 -22 -20 -37 -20 -36 16 -109
36 -73 83 -116 226 -205 151 -95 279 -151 478 -207 224 -64 303 -81 403 -85
43 -2 84 -7 89 -10 19 -12 386 -27 397 -17 7 5 31 4 61 -2 48 -10 83 -9 365
18 128 12 283 40 345 63 53 20 81 37 113 72 23 25 42 51 42 58 0 6 5 11 10 11
6 0 10 9 10 20 0 11 5 20 10 20 6 0 10 11 10 25 0 13 8 39 19 57 43 79 29 156
-36 185 -21 10 -40 18 -42 20 -1 1 4 11 12 23 16 24 12 60 -8 60 -7 0 -18 7
-25 15 -10 12 -9 15 7 15 43 0 37 31 -10 55 -32 16 -32 16 -64 -22 -30 -35
-31 -40 -18 -60 10 -14 11 -24 4 -28 -6 -4 -7 -11 -1 -18 6 -7 8 -43 5 -82 -2
-38 -4 -80 -4 -93 -1 -13 -6 -21 -13 -19 -6 2 -10 16 -8 30 2 15 0 32 -5 39
-12 19 -12 91 0 106 7 9 2 19 -17 37 -31 28 -31 60 -1 60 14 0 21 8 23 26 2
17 11 29 23 32 10 3 19 12 19 21 0 21 -14 20 -35 0 -13 -14 -23 -15 -50 -7
-35 11 -62 3 -51 -16 4 -7 -1 -11 -13 -11 -11 0 -28 -8 -37 -17 -17 -17 -18
-17 -11 0 4 10 7 25 7 33 0 8 9 14 20 14 11 0 20 6 20 14 0 28 -17 25 -54 -11
-42 -41 -61 -35 -61 20 0 22 -5 33 -17 35 -13 3 -18 -3 -18 -21 0 -22 -16 -43
-49 -62 -10 -6 -12 -1 -6 23 5 26 2 33 -18 47 -14 9 -40 17 -59 19 -18 2 -40
6 -48 9 -8 3 -26 7 -40 9 -17 2 -32 16 -48 46 -16 28 -30 42 -44 42 -19 0 -20
-1 -4 -22 9 -13 21 -34 26 -46 6 -13 19 -26 30 -29 36 -10 21 -20 -36 -25 -59
-5 -104 8 -104 30 0 14 46 16 55 2 3 -5 14 -10 25 -10 16 0 17 3 7 25 -7 15
-18 23 -27 20 -8 -2 -22 0 -30 5 -12 8 -13 13 -3 29 12 20 8 31 -13 31 -7 0
-15 -18 -19 -40 -7 -43 -29 -54 -38 -18 -4 14 0 26 11 34 16 12 16 13 0 19
-10 4 -29 -1 -47 -14 -35 -25 -41 -26 -41 -6 0 22 -17 18 -23 -6 -5 -18 -8
-19 -28 -9 -21 12 -21 11 -14 -26 l7 -39 -27 25 c-15 14 -34 37 -43 53 -17 28
-42 33 -89 21 -30 -8 -29 -38 2 -76 l25 -29 11 28 c7 19 7 29 0 31 -17 6 -13
42 4 42 9 0 17 -6 19 -12 2 -7 9 -32 15 -54 10 -37 14 -41 36 -36 18 3 25 0
25 -12 0 -9 -8 -16 -19 -16 -11 0 -23 -5 -26 -10 -4 -7 -17 -4 -37 8 -28 18
-33 18 -61 4 -29 -15 -31 -14 -52 11 -27 35 -35 34 -35 -3 0 -32 -14 -40 -24
-14 -4 9 -9 14 -13 11 -3 -4 -17 8 -30 25 -13 18 -30 36 -38 41 -22 12 -19 48
5 54 30 8 24 23 -10 23 -17 0 -33 -7 -39 -17 -7 -12 -10 -13 -11 -4 0 9 -8 11
-23 8 -33 -9 -46 4 -45 43 1 19 -2 44 -7 54 -7 17 -5 18 19 12 19 -5 39 1 71
20 51 29 57 44 20 44 -15 0 -38 6 -53 14 -29 14 -112 23 -177 19z m-625 -233
c0 -5 -4 -10 -10 -10 -5 0 -10 5 -10 10 0 6 5 10 10 10 6 0 10 -4 10 -10z
m-35 -45 c0 -12 -8 -21 -20 -22 -11 -2 -14 0 -8 3 10 4 10 11 2 26 -9 17 -8
19 8 16 10 -2 18 -12 18 -23z m1379 9 c3 -9 6 -29 6 -45 0 -30 -13 -36 -40
-19 -12 7 -12 12 4 28 11 13 14 22 7 27 -16 9 -14 25 3 25 8 0 17 -7 20 -16z
m-566 -3 c11 -6 11 -10 0 -19 -16 -13 -44 1 -34 17 8 13 16 14 34 2z m507 -44
c-6 -32 -10 -35 -26 -26 -23 12 -25 29 -3 29 11 0 14 5 10 16 -8 21 3 39 16
26 5 -5 6 -26 3 -45z m-1255 34 c0 -6 -5 -13 -10 -16 -6 -4 -8 -11 -5 -16 4
-5 2 -9 -3 -9 -12 0 -24 29 -16 41 7 12 34 12 34 0z m50 -17 c0 -9 -5 -14 -12
-12 -18 6 -21 28 -4 28 9 0 16 -7 16 -16z m58 -1 c-2 -10 -10 -18 -18 -18 -8
0 -16 8 -18 18 -2 12 3 17 18 17 15 0 20 -5 18 -17z m539 1 c-3 -3 -12 -4 -19
-1 -8 3 -5 6 6 6 11 1 17 -2 13 -5z m207 0 c19 -7 21 -34 3 -34 -14 0 -37 20
-37 32 0 10 13 10 34 2z m-644 -8 c0 -3 -4 -8 -10 -11 -5 -3 -10 -1 -10 4 0 6
5 11 10 11 6 0 10 -2 10 -4z m-320 -37 c0 -5 -7 -9 -15 -9 -15 0 -20 12 -9 23
8 8 24 -1 24 -14z m717 -5 c-9 -9 -28 6 -21 18 4 6 10 6 17 -1 6 -6 8 -13 4
-17z m-75 1 c0 -5 -5 -11 -11 -13 -6 -2 -11 4 -11 13 0 9 5 15 11 13 6 -2 11
-8 11 -13z m246 -8 c4 -19 -23 -23 -48 -7 -13 9 -13 11 0 20 21 14 44 8 48
-13z m-98 -7 c0 -5 -4 -10 -10 -10 -5 0 -10 5 -10 10 0 6 5 10 10 10 6 0 10
-4 10 -10z m758 -45 c15 -33 -2 -41 -22 -10 -19 30 -20 35 -3 35 8 0 19 -11
25 -25z m-250 -44 c-13 -14 -24 -28 -25 -30 -2 -2 -6 -2 -9 2 -9 8 38 67 48
61 5 -4 -1 -18 -14 -33z m612 24 c-13 -16 -40 -20 -40 -7 0 14 12 22 33 22 16
0 17 -3 7 -15z m324 7 c2 -4 1 -14 -4 -22 -7 -11 -12 -12 -21 -3 -6 6 -8 16
-5 22 8 13 23 14 30 3z m-1224 -32 c0 -5 -4 -10 -10 -10 -5 0 -10 5 -10 10 0
6 5 10 10 10 6 0 10 -4 10 -10z m856 -78 c-9 -9 -37 8 -31 18 5 8 11 7 21 -1
8 -6 12 -14 10 -17z m79 -2 c-20 -23 -29 -21 -19 4 3 9 13 16 22 16 13 0 12
-3 -3 -20z m-125 -80 c0 -11 -4 -20 -10 -20 -5 0 -10 9 -10 20 0 11 5 20 10
20 6 0 10 -9 10 -20z m457 -2 c-3 -8 -6 -5 -6 6 -1 11 2 17 5 13 3 -3 4 -12 1
-19z m41 -55 c15 -33 15 -43 2 -43 -5 0 -10 7 -10 15 0 7 -7 18 -16 23 -9 5
-14 14 -10 21 11 17 20 13 34 -16z m-1078 -159 c0 -8 -5 -12 -10 -9 -6 4 -8
11 -5 16 9 14 15 11 15 -7z m520 -16 c0 -5 -4 -8 -10 -8 -5 0 -10 10 -10 23 0
18 2 19 10 7 5 -8 10 -18 10 -22z"/>
<path d="M3980 1465 c0 -16 17 -19 44 -9 22 9 10 24 -20 24 -15 0 -24 -6 -24
-15z"/>
<path d="M3606 1381 c-23 -44 -20 -58 14 -63 31 -5 31 -5 28 40 -4 55 -21 64
-42 23z"/>
<path d="M3959 1364 l-21 -46 22 -15 c14 -10 19 -21 15 -34 -4 -11 -2 -19 4
-19 6 0 11 9 11 20 0 10 8 35 17 54 13 29 14 40 5 61 -17 36 -30 31 -53 -21z"/>
<path d="M2244 1375 c-7 -27 20 -70 37 -59 13 8 11 58 -3 72 -18 18 -27 15
-34 -13z"/>
<path d="M2356 1393 c-15 -15 -5 -52 15 -58 25 -8 42 5 34 26 -7 18 -41 40
-49 32z"/>
<path d="M2587 1364 c-15 -29 -15 -33 -1 -45 23 -19 37 2 26 42 l-9 34 -16
-31z"/>
<path d="M3295 1370 c-3 -6 1 -13 10 -16 19 -8 30 0 20 15 -8 14 -22 14 -30 1z"/>
<path d="M4260 1350 c0 -5 4 -10 9 -10 6 0 13 5 16 10 3 6 -1 10 -9 10 -9 0
-16 -4 -16 -10z"/>
<path d="M4150 1315 c0 -8 5 -15 10 -15 6 0 10 7 10 15 0 8 -4 15 -10 15 -5 0
-10 -7 -10 -15z"/>
<path d="M4210 1320 c0 -5 5 -10 11 -10 5 0 7 5 4 10 -3 6 -8 10 -11 10 -2 0
-4 -4 -4 -10z"/>
<path d="M4030 1289 c7 -11 14 -18 17 -15 8 8 -5 36 -17 36 -7 0 -7 -6 0 -21z"/>
<path d="M3448 1288 c9 -9 15 -9 24 0 9 9 7 12 -12 12 -19 0 -21 -3 -12 -12z"/>
<path d="M3914 1283 c-12 -19 11 -79 33 -87 22 -9 15 32 -8 44 -16 9 -19 18
-15 36 7 28 5 30 -10 7z"/>
<path d="M4090 1291 c0 -6 5 -13 10 -16 6 -3 10 1 10 9 0 9 -4 16 -10 16 -5 0
-10 -4 -10 -9z"/>
<path d="M3840 1275 c-10 -12 -10 -21 -2 -40 15 -33 34 -33 26 0 -4 15 -1 32
6 40 10 12 10 15 -3 15 -8 0 -20 -7 -27 -15z"/>
<path d="M2686 1261 c-4 -5 -2 -12 3 -15 5 -4 12 -2 15 3 4 5 2 12 -3 15 -5 4
-12 2 -15 -3z"/>
<path d="M3166 1263 c-7 -7 13 -33 25 -33 5 0 9 6 9 14 0 15 -24 28 -34 19z"/>
<path d="M3240 1251 c0 -21 13 -41 26 -41 8 0 14 5 14 10 0 6 -4 10 -10 10 -5
0 -10 7 -10 15 0 8 -4 15 -10 15 -5 0 -10 -4 -10 -9z"/>
<path d="M4033 1223 c-15 -5 -18 -33 -4 -33 13 0 33 28 24 33 -4 2 -14 2 -20
0z"/>
<path d="M4170 1220 c0 -5 7 -10 15 -10 8 0 15 5 15 10 0 6 -7 10 -15 10 -8 0
-15 -4 -15 -10z"/>
<path d="M4292 1198 c7 -13 11 -28 10 -35 -3 -15 15 -26 22 -14 7 11 -22 71
-35 71 -5 0 -4 -10 3 -22z"/>
<path d="M4210 1196 c0 -9 5 -16 10 -16 6 0 10 4 10 9 0 6 -4 13 -10 16 -5 3
-10 -1 -10 -9z"/>
<path d="M1950 1154 c0 -11 -6 -26 -12 -33 -11 -10 -9 -12 7 -9 23 4 32 35 16
51 -8 8 -11 5 -11 -9z"/>
</g>
</svg>
